<svg id="svg" version="1.1" viewBox="0 0 300 240.3027382450556" width="300" height="240.3027382450556" xmlns="http://www.w3.org/2000/svg"><g xmlns="http://www.w3.org/2000/svg" fill="none" fill-rule="nonzero" stroke="none" stroke-width="1" stroke-linecap="butt" stroke-linejoin="miter" stroke-miterlimit="10" stroke-dasharray="" stroke-dashoffset="0" font-family="none" font-weight="none" font-size="none" text-anchor="none" style="mix-blend-mode: normal"><path d="M237.38259,1.5574c5.68982,4.53622 5.96652,13.92977 6.85292,20.61666c0.15902,1.16229 0.35251,2.31267 0.55762,3.46759c0.32164,1.88034 0.53676,3.7578 0.7313,5.65541c0.86566,7.99223 2.51713,15.75553 4.50666,23.53425c2.60676,11.0235 1.89669,21.95031 -2.11773,32.53234c-0.28519,0.77164 -0.56959,1.54357 -0.85319,2.31579c-0.12619,0.33334 -0.25239,0.66668 -0.38241,1.01011c-1.11228,3.3055 -0.77483,6.6452 -0.32452,10.05695c1.21842,11.85513 1.42644,22.79866 -5.07037,33.03053c-0.21217,0.37859 -0.42434,0.75717 -0.64294,1.14723c-0.17396,0.26496 -0.34792,0.52992 -0.52715,0.80291c-0.25742,0 -0.51484,0 -0.78006,0c-0.25742,0.51484 -0.51484,1.02968 -0.78006,1.56011c-0.86474,1.20573 -1.79848,2.35577 -2.7302,3.51026c-0.33258,0.41328 -0.33258,0.41328 -0.67189,0.8349c-0.53647,0.64851 -1.10016,1.27432 -1.66828,1.8953c-0.25742,0 -0.51484,0 -0.78006,0c-0.25742,0.51484 -0.51484,1.02968 -0.78006,1.56011c-0.25742,0 -0.51484,0 -0.78006,0c0,0.38613 0,0.77226 0,1.17009c1.41109,0.47036 2.63224,0.46257 4.11968,0.51191c4.86788,0.28866 8.03291,1.88996 11.48146,5.33851c0,0.25742 0,0.51484 0,0.78006c0.38613,0.12871 0.77226,0.25742 1.17009,0.39003c0.38613,0.38613 0.77226,0.77226 1.17009,1.17009c0.97015,0.77418 1.95209,1.53161 2.93588,2.28837c4.5599,3.93318 6.00799,10.27287 6.64115,16.00336c0.2649,3.62956 0.37323,7.25893 0.46925,10.89642c0.1731,5.12033 0.51871,10.25407 1.45956,15.29643c0.33965,2.00074 0.53678,4.01934 0.75568,6.0363c0.16222,1.28875 0.36201,2.5729 0.582,3.85306c0.51649,3.18002 0.88506,6.36503 1.24626,9.56636c0.13776,1.20213 0.27552,2.40425 0.41745,3.6428c0.31385,3.40209 0.31385,3.40209 0.31385,8.47246c2.42687,-0.01357 4.85375,-0.02715 7.35417,-0.04114c4.69764,-0.01584 4.69764,-0.01584 9.49018,-0.03199c4.6901,-0.02036 4.6901,-0.02036 9.47495,-0.04114c7.61317,0.11427 7.61317,0.11427 9.56331,1.28435c0.23158,1.01164 0.23158,1.01164 0.19501,2.14516c-0.00402,0.37406 -0.00804,0.74813 -0.01219,1.13352c-0.18283,1.01164 -0.18283,1.01164 -1.35291,2.18172c-35.14304,0.12055 -70.28633,0.17332 -105.42957,0.19501c-51.14537,-1.09729 -51.14537,-1.09729 -107.916,1.3651c-3.50346,1.02409 -7.00163,1.02167 -10.6039,0.51191c-1.84875,-0.12005 -2.97239,0.20359 -4.69863,0.79529c-2.8355,0.66482 -5.90649,0.13595 -8.63547,-0.77091c-2.41219,-0.71714 -4.09263,-0.35413 -6.48422,0.24377c-3.93509,0.28069 -7.3813,-0.1804 -10.9208,-1.95014c-10.73413,-0.09303 -21.46721,-0.09793 -32.20172,-0.1036c-3.01663,-0.09452 -6.03325,-0.18904 -9.14129,-0.28643c-1.56011,-2.34017 -1.56011,-2.34017 -1.56011,-4.29031c0.51191,-1.07258 0.51191,-1.07258 1.17009,-1.95014c3.70535,-1.23512 9.97401,-0.42177 13.72413,-0.41441c2.30621,0.00352 4.61242,0.00704 6.98852,0.01066c1.78835,0.00453 3.57671,0.00905 5.41926,0.01371c0.19306,-2.50983 0.19306,-2.50983 0.39003,-5.07037c0.91987,-5.65453 2.28908,-11.33367 5.07037,-16.3812c0.25742,0 0.51484,0 0.78006,0c0.12871,-0.51484 0.25742,-1.02968 0.39003,-1.56011c0.47738,-0.75674 0.9843,-1.49526 1.51136,-2.21829c0.40875,-0.56939 0.40875,-0.56939 0.82576,-1.15028c0.7831,-0.92175 0.7831,-0.92175 1.95319,-1.31177c0.25742,-0.51484 0.51484,-1.02968 0.78006,-1.56011c4.73846,-3.73561 10.2241,-5.22607 15.99117,-6.63048c-0.17547,-0.50126 -0.35094,-1.00253 -0.53172,-1.51898c-2.35152,-7.33516 -2.38412,-14.63056 -2.19848,-22.27276c-0.453,-0.04525 -0.90599,-0.0905 -1.37272,-0.13712c-7.25421,-1.04987 -14.75726,-5.11225 -20.46888,-9.61359c-0.30267,-0.22926 -0.60534,-0.45853 -0.91718,-0.69474c-5.47366,-4.23991 -10.94169,-8.93468 -13.90391,-15.29643c-0.30091,-0.63575 -0.30091,-0.63575 -0.60789,-1.28435c-2.71905,-6.21787 -3.36131,-12.80534 -3.88048,-19.50904c-0.44284,-6.39682 -0.44284,-6.39682 -2.53214,-12.35903c0,-0.38613 0,-0.77226 0,-1.17009c-0.25742,0 -0.51484,0 -0.78006,0c-9.71919,-17.00858 -8.80182,-33.10864 -8.80002,-53.06825c-0.00855,-5.57121 -0.01709,-11.14241 -0.0259,-16.88244c0.27298,-15.04089 0.27298,-15.04089 3.02425,-18.43951c0.7313,-0.53629 0.7313,-0.53629 1.90139,-0.53629c0,-0.25742 0,-0.51484 0,-0.78006c3.59006,-1.79503 8.63371,-1.17938 12.33465,0c6.54937,2.50272 12.69398,5.80316 18.4776,9.75071c0.39417,0.22524 0.78835,0.45048 1.19446,0.68255c0.24937,0.16089 0.49875,0.32177 0.75568,0.48754c0,0.25742 0,0.51484 0,0.78006c0.77226,0.19306 0.77226,0.19306 1.56011,0.39003c0.70066,0.46971 1.38095,0.9702 2.04765,1.48698c1.89621,1.45738 3.80573,2.89252 5.72854,4.31469c2.45375,1.8368 4.8044,3.75972 7.12411,5.76206c0.90096,0.75751 1.80258,1.44797 2.77286,2.11164c0.34591,0.24938 0.69181,0.49875 1.0482,0.75568c0,0.25742 0,0.51484 0,0.78006c0.51484,0.25742 1.02968,0.51484 1.56011,0.78006c0,0.25742 0,0.51484 0,0.78006c0.51484,0.12871 1.02968,0.25742 1.56011,0.39003c12.48091,12.48091 12.48091,12.48091 12.48091,13.651c0.51484,0.25742 1.02968,0.51484 1.56011,0.78006c0.73587,0.87452 0.73587,0.87452 1.43823,1.90139c0.23479,0.33686 0.46959,0.67371 0.7115,1.02078c0.58047,0.97812 0.58047,0.97812 0.9705,2.53823c0.25742,0 0.51484,0 0.78006,0c1.79143,2.48358 3.24205,5.10237 4.68034,7.80057c0.59778,1.07922 1.19614,2.1581 1.79626,3.23602c0.63866,1.23796 1.17423,2.50009 1.71399,3.78449c0.27753,0.63852 0.55506,1.27704 0.841,1.93491c0.30166,0.69684 0.60332,1.39368 0.91413,2.11164c0.30166,0.69483 0.60333,1.38966 0.91413,2.10555c0.75652,1.83374 1.40817,3.66008 2.01108,5.54876c0.15033,0.45099 0.30066,0.90197 0.45554,1.36662c0.36819,1.10457 0.73638,2.20914 1.10457,3.31372c1.93542,-0.61288 3.79555,-1.28207 5.65541,-2.0964c2.97394,-1.26098 6.0569,-2.11274 9.16567,-2.97397c0.6717,-0.19508 1.3434,-0.39015 2.03546,-0.59113c6.15914,-1.5814 12.56014,-2.27066 18.90724,-2.46053c1.67435,-0.0462 1.67435,-0.0462 3.30915,-0.2651c8.6484,-0.89007 21.86301,-1.51284 29.96211,2.53671c0.03218,-0.59528 0.06435,-1.19056 0.09751,-1.80388c1.28737,-15.18022 6.56968,-31.001 14.72357,-43.82945c0.30066,-0.47763 0.60131,-0.95527 0.91108,-1.44737c1.52816,-2.36671 1.52816,-2.36671 2.20914,-3.23297c0.25742,0 0.51484,0 0.78006,0c0.12871,-0.51484 0.25742,-1.02968 0.39003,-1.56011c0.25742,0 0.51484,0 0.78006,0c0.11388,-0.38462 0.11388,-0.38462 0.23005,-0.77701c0.78468,-1.67369 1.92113,-2.92932 3.10956,-4.34211c0.7338,-0.87784 0.7338,-0.87784 1.48241,-1.77341c0.46808,-0.55707 0.93616,-1.11414 1.41842,-1.68809c0.68422,-0.82743 1.36708,-1.65599 2.04765,-2.48643c0.26747,-0.32479 0.53495,-0.64958 0.81053,-0.98421c0.70116,-0.85784 0.70116,-0.85784 1.43214,-1.98975c0.25742,0 0.51484,0 0.78006,0c0.25742,-0.51484 0.51484,-1.02968 0.78006,-1.56011c0.43802,-0.56612 0.89403,-1.11869 1.3651,-1.65762c0.23731,-0.27552 0.47462,-0.55104 0.71911,-0.8349c0.64598,-0.6277 0.64598,-0.6277 1.42604,-0.6277c0.25742,-0.51484 0.51484,-1.02968 0.78006,-1.56011c0.60645,-0.66012 1.23455,-1.30064 1.87701,-1.92577c0.4985,-0.48794 0.4985,-0.48794 1.00707,-0.98573c0.33535,-0.3263 0.6707,-0.6526 1.01621,-0.98878c1.05158,-1.0465 2.09701,-2.0987 3.14003,-3.15375c5.19626,-5.23982 11.09673,-10.95814 17.9215,-14.00751c0.84466,-0.3982 0.84466,-0.3982 1.70637,-0.80443c4.09963,-1.7923 7.98193,-2.29034 11.94462,0.02438z" fill="#bc9970"/><path d="M237.38259,1.5574c5.68982,4.53622 5.96652,13.92977 6.85292,20.61666c0.15902,1.16229 0.35251,2.31267 0.55762,3.46759c0.32164,1.88034 0.53676,3.7578 0.7313,5.65541c0.86566,7.99223 2.51713,15.75553 4.50666,23.53425c2.60676,11.0235 1.89669,21.95031 -2.11773,32.53234c-0.28519,0.77164 -0.56959,1.54357 -0.85319,2.31579c-0.12619,0.33334 -0.25239,0.66668 -0.38241,1.01011c-1.11228,3.3055 -0.77483,6.6452 -0.32452,10.05695c1.21842,11.85513 1.42644,22.79866 -5.07037,33.03053c-0.21217,0.37859 -0.42434,0.75717 -0.64294,1.14723c-0.17396,0.26496 -0.34792,0.52992 -0.52715,0.80291c-0.25742,0 -0.51484,0 -0.78006,0c-0.25742,0.51484 -0.51484,1.02968 -0.78006,1.56011c-0.86474,1.20573 -1.79848,2.35577 -2.7302,3.51026c-0.33258,0.41328 -0.33258,0.41328 -0.67189,0.8349c-0.53647,0.64851 -1.10016,1.27432 -1.66828,1.8953c-0.25742,0 -0.51484,0 -0.78006,0c-0.25742,0.51484 -0.51484,1.02968 -0.78006,1.56011c-0.25742,0 -0.51484,0 -0.78006,0c0,0.38613 0,0.77226 0,1.17009c1.41109,0.47036 2.63224,0.46257 4.11968,0.51191c4.86788,0.28866 8.03291,1.88996 11.48146,5.33851c0,0.25742 0,0.51484 0,0.78006c0.38613,0.12871 0.77226,0.25742 1.17009,0.39003c0.38613,0.38613 0.77226,0.77226 1.17009,1.17009c0.97015,0.77418 1.95209,1.53161 2.93588,2.28837c4.5599,3.93318 6.00799,10.27287 6.64115,16.00336c0.2649,3.62956 0.37323,7.25893 0.46925,10.89642c0.1731,5.12033 0.51871,10.25407 1.45956,15.29643c0.33965,2.00074 0.53678,4.01934 0.75568,6.0363c0.16222,1.28875 0.36201,2.5729 0.582,3.85306c0.51649,3.18002 0.88506,6.36503 1.24626,9.56636c0.13776,1.20213 0.27552,2.40425 0.41745,3.6428c0.31385,3.40209 0.31385,3.40209 0.31385,8.47246c2.42687,-0.01357 4.85375,-0.02715 7.35417,-0.04114c4.69764,-0.01584 4.69764,-0.01584 9.49018,-0.03199c4.6901,-0.02036 4.6901,-0.02036 9.47495,-0.04114c7.61317,0.11427 7.61317,0.11427 9.56331,1.28435c0.23158,1.01164 0.23158,1.01164 0.19501,2.14516c-0.00402,0.37406 -0.00804,0.74813 -0.01219,1.13352c-0.18283,1.01164 -0.18283,1.01164 -1.35291,2.18172c-35.14304,0.12055 -70.28633,0.17332 -105.42957,0.19501c-51.14537,-1.09729 -51.14537,-1.09729 -107.916,1.3651c-3.50346,1.02409 -7.00163,1.02167 -10.6039,0.51191c-1.84875,-0.12005 -2.97239,0.20359 -4.69863,0.79529c-2.8355,0.66482 -5.90649,0.13595 -8.63547,-0.77091c-2.41219,-0.71714 -4.09263,-0.35413 -6.48422,0.24377c-3.93509,0.28069 -7.3813,-0.1804 -10.9208,-1.95014c-10.73413,-0.09303 -21.46721,-0.09793 -32.20172,-0.1036c-3.01663,-0.09452 -6.03325,-0.18904 -9.14129,-0.28643c-1.56011,-2.34017 -1.56011,-2.34017 -1.56011,-4.29031c0.51191,-1.07258 0.51191,-1.07258 1.17009,-1.95014c3.70535,-1.23512 9.97401,-0.42177 13.72413,-0.41441c2.30621,0.00352 4.61242,0.00704 6.98852,0.01066c1.78835,0.00453 3.57671,0.00905 5.41926,0.01371c0.19306,-2.50983 0.19306,-2.50983 0.39003,-5.07037c0.91987,-5.65453 2.28908,-11.33367 5.07037,-16.3812c0.25742,0 0.51484,0 0.78006,0c0.12871,-0.51484 0.25742,-1.02968 0.39003,-1.56011c0.47738,-0.75674 0.9843,-1.49526 1.51136,-2.21829c0.40875,-0.56939 0.40875,-0.56939 0.82576,-1.15028c0.7831,-0.92175 0.7831,-0.92175 1.95319,-1.31177c0.25742,-0.51484 0.51484,-1.02968 0.78006,-1.56011c4.73846,-3.73561 10.2241,-5.22607 15.99117,-6.63048c-0.17547,-0.50126 -0.35094,-1.00253 -0.53172,-1.51898c-2.35152,-7.33516 -2.38412,-14.63056 -2.19848,-22.27276c-0.453,-0.04525 -0.90599,-0.0905 -1.37272,-0.13712c-7.25421,-1.04987 -14.75726,-5.11225 -20.46888,-9.61359c-0.30267,-0.22926 -0.60534,-0.45853 -0.91718,-0.69474c-5.47366,-4.23991 -10.94169,-8.93468 -13.90391,-15.29643c-0.30091,-0.63575 -0.30091,-0.63575 -0.60789,-1.28435c-2.71905,-6.21787 -3.36131,-12.80534 -3.88048,-19.50904c-0.44284,-6.39682 -0.44284,-6.39682 -2.53214,-12.35903c0,-0.38613 0,-0.77226 0,-1.17009c-0.25742,0 -0.51484,0 -0.78006,0c-9.71919,-17.00858 -8.80182,-33.10864 -8.80002,-53.06825c-0.00855,-5.57121 -0.01709,-11.14241 -0.0259,-16.88244c0.27298,-15.04089 0.27298,-15.04089 3.02425,-18.43951c0.7313,-0.53629 0.7313,-0.53629 1.90139,-0.53629c0,-0.25742 0,-0.51484 0,-0.78006c3.59006,-1.79503 8.63371,-1.17938 12.33465,0c6.54937,2.50272 12.69398,5.80316 18.4776,9.75071c0.39417,0.22524 0.78835,0.45048 1.19446,0.68255c0.24937,0.16089 0.49875,0.32177 0.75568,0.48754c0,0.25742 0,0.51484 0,0.78006c0.77226,0.19306 0.77226,0.19306 1.56011,0.39003c0.70066,0.46971 1.38095,0.9702 2.04765,1.48698c1.89621,1.45738 3.80573,2.89252 5.72854,4.31469c2.45375,1.8368 4.8044,3.75972 7.12411,5.76206c0.90096,0.75751 1.80258,1.44797 2.77286,2.11164c0.34591,0.24938 0.69181,0.49875 1.0482,0.75568c0,0.25742 0,0.51484 0,0.78006c0.51484,0.25742 1.02968,0.51484 1.56011,0.78006c0,0.25742 0,0.51484 0,0.78006c0.51484,0.12871 1.02968,0.25742 1.56011,0.39003c12.48091,12.48091 12.48091,12.48091 12.48091,13.651c0.51484,0.25742 1.02968,0.51484 1.56011,0.78006c0.73587,0.87452 0.73587,0.87452 1.43823,1.90139c0.23479,0.33686 0.46959,0.67371 0.7115,1.02078c0.58047,0.97812 0.58047,0.97812 0.9705,2.53823c0.25742,0 0.51484,0 0.78006,0c1.79143,2.48358 3.24205,5.10237 4.68034,7.80057c0.59778,1.07922 1.19614,2.1581 1.79626,3.23602c0.63866,1.23796 1.17423,2.50009 1.71399,3.78449c0.27753,0.63852 0.55506,1.27704 0.841,1.93491c0.30166,0.69684 0.60332,1.39368 0.91413,2.11164c0.30166,0.69483 0.60333,1.38966 0.91413,2.10555c0.75652,1.83374 1.40817,3.66008 2.01108,5.54876c0.15033,0.45099 0.30066,0.90197 0.45554,1.36662c0.36819,1.10457 0.73638,2.20914 1.10457,3.31372c1.93542,-0.61288 3.79555,-1.28207 5.65541,-2.0964c2.97394,-1.26098 6.0569,-2.11274 9.16567,-2.97397c0.6717,-0.19508 1.3434,-0.39015 2.03546,-0.59113c6.15914,-1.5814 12.56014,-2.27066 18.90724,-2.46053c1.67435,-0.0462 1.67435,-0.0462 3.30915,-0.2651c8.6484,-0.89007 21.86301,-1.51284 29.96211,2.53671c0.03218,-0.59528 0.06435,-1.19056 0.09751,-1.80388c1.28737,-15.18022 6.56968,-31.001 14.72357,-43.82945c0.30066,-0.47763 0.60131,-0.95527 0.91108,-1.44737c1.52816,-2.36671 1.52816,-2.36671 2.20914,-3.23297c0.25742,0 0.51484,0 0.78006,0c0.12871,-0.51484 0.25742,-1.02968 0.39003,-1.56011c0.25742,0 0.51484,0 0.78006,0c0.11388,-0.38462 0.11388,-0.38462 0.23005,-0.77701c0.78468,-1.67369 1.92113,-2.92932 3.10956,-4.34211c0.7338,-0.87784 0.7338,-0.87784 1.48241,-1.77341c0.46808,-0.55707 0.93616,-1.11414 1.41842,-1.68809c0.68422,-0.82743 1.36708,-1.65599 2.04765,-2.48643c0.26747,-0.32479 0.53495,-0.64958 0.81053,-0.98421c0.70116,-0.85784 0.70116,-0.85784 1.43214,-1.98975c0.25742,0 0.51484,0 0.78006,0c0.25742,-0.51484 0.51484,-1.02968 0.78006,-1.56011c0.43802,-0.56612 0.89403,-1.11869 1.3651,-1.65762c0.23731,-0.27552 0.47462,-0.55104 0.71911,-0.8349c0.64598,-0.6277 0.64598,-0.6277 1.42604,-0.6277c0.25742,-0.51484 0.51484,-1.02968 0.78006,-1.56011c0.60645,-0.66012 1.23455,-1.30064 1.87701,-1.92577c0.4985,-0.48794 0.4985,-0.48794 1.00707,-0.98573c0.33535,-0.3263 0.6707,-0.6526 1.01621,-0.98878c1.05158,-1.0465 2.09701,-2.0987 3.14003,-3.15375c5.19626,-5.23982 11.09673,-10.95814 17.9215,-14.00751c0.84466,-0.3982 0.84466,-0.3982 1.70637,-0.80443c4.09963,-1.7923 7.98193,-2.29034 11.94462,0.02438zM227.87565,7.60284c-0.41328,0.181 -0.82656,0.36199 -1.25236,0.54848c-0.46607,0.21117 -0.46607,0.21117 -0.94155,0.42659c0,0.25742 0,0.51484 0,0.78006c-0.33887,0.09452 -0.67774,0.18904 -1.02687,0.28643c-1.43126,0.53797 -2.40151,1.21293 -3.60472,2.15125c-0.60483,0.46833 -0.60483,0.46833 -1.22189,0.94612c-0.38512,0.29915 -0.77025,0.5983 -1.16704,0.90651c-0.61678,0.44797 -1.2342,0.89505 -1.85264,1.34072c-0.62746,0.49473 -0.62746,0.49473 -1.26759,0.99945c0,0.25742 0,0.51484 0,0.78006c-0.51484,0.25742 -1.02968,0.51484 -1.56011,0.78006c-1.24275,0.98912 -2.38669,1.99666 -3.51026,3.12023c0,0.25742 0,0.51484 0,0.78006c-0.57919,0.19306 -0.57919,0.19306 -1.17009,0.39003c0,0.25742 0,0.51484 0,0.78006c-0.57919,0.19306 -0.57919,0.19306 -1.17009,0.39003c0,0.25742 0,0.51484 0,0.78006c-0.25742,0 -0.51484,0 -0.78006,0c-0.62372,0.70507 -1.24441,1.41297 -1.85264,2.13144c-1.00979,1.13777 -2.08162,2.19204 -3.16898,3.25582c-1.833,1.81469 -3.499,3.6889 -5.10084,5.70874c-0.76585,0.95439 -1.56396,1.86543 -2.38283,2.77438c-1.23017,1.14563 -1.23017,1.14563 -1.14571,2.12078c-0.25742,0 -0.51484,0 -0.78006,0c-0.77373,0.95443 -1.51592,1.93453 -2.24266,2.92521c-0.4002,0.54299 -0.80041,1.08599 -1.21275,1.64543c-0.40423,0.55104 -0.80845,1.10208 -1.22493,1.66981c-1.04974,1.40487 -2.10046,2.80826 -3.16898,4.1989c-1.62316,2.15069 -2.91726,4.30492 -4.07397,6.73713c-0.53648,1.11107 -1.12013,2.17777 -1.72771,3.25125c-2.55787,4.66943 -4.21609,9.62406 -5.85043,14.67482c-0.40583,1.17505 -0.81232,2.34976 -1.22493,3.52244c-0.48208,1.66534 -0.78538,3.35668 -1.11524,5.05818c-0.12419,0.57115 -0.24837,1.1423 -0.37632,1.73075c-0.99893,4.68575 -1.58578,9.34502 -2.03851,14.11415c-0.31537,2.0964 -0.31537,2.0964 -1.48546,3.65652c-2.10523,0.31777 -3.56547,-0.12884 -5.62646,-0.72521c-9.70474,-2.74275 -20.22905,-3.94351 -30.25615,-2.39502c-0.05631,-0.29764 -0.11262,-0.59528 -0.17064,-0.90194c-0.20506,-1.08008 -0.20506,-1.08008 -0.60942,-2.21829c-1.67322,0 -3.34644,0 -5.07037,0c-0.86228,2.17572 -0.86228,2.17572 -0.78006,3.90028c-0.35898,0.0191 -0.71796,0.03821 -1.08781,0.0579c-8.23376,0.48631 -15.82405,2.22267 -23.48398,5.4025c-0.42735,0.17295 -0.85471,0.34591 -1.29502,0.5241c-1.73796,0.71648 -3.40812,1.43826 -5.06732,2.32798c-1.54686,0.70789 -2.48928,0.85572 -4.16843,0.65817c-1.62144,-1.08096 -1.52168,-1.96641 -1.90139,-3.85153c-0.55989,-2.55274 -1.26769,-4.83886 -2.33103,-7.2201c-0.64742,-1.4732 -1.1093,-3.00336 -1.61801,-4.52951c-2.24991,-6.06621 -5.14447,-11.67743 -8.46483,-17.22372c-0.83709,-1.39942 -1.65172,-2.80935 -2.45596,-4.22785c-0.25742,0 -0.51484,0 -0.78006,0c-0.25742,-0.51484 -0.51484,-1.02968 -0.78006,-1.56011c-0.73253,-1.09084 -1.51702,-2.09129 -2.34017,-3.12023c-0.25742,0 -0.51484,0 -0.78006,0c-0.08849,-0.27351 -0.17698,-0.54701 -0.26814,-0.82881c-1.06417,-2.33103 -2.84785,-3.82372 -4.80223,-5.41164c-0.91835,-0.89353 -1.81256,-1.80726 -2.70125,-2.7302c-1.86736,-1.91048 -3.81011,-3.63811 -5.89461,-5.30805c-1.26489,-1.02125 -2.50205,-2.0712 -3.73879,-3.12632c-3.10939,-3.10019 -3.10939,-3.10019 -6.77674,-4.8266c0,-0.25742 0,-0.51484 0,-0.78006c-0.82493,-0.64419 -1.67502,-1.25631 -2.53518,-1.85264c-3.21162,-2.24652 -3.21162,-2.24652 -4.60721,-3.31524c-3.56779,-3.00278 -3.56779,-3.00278 -7.67869,-4.58283c0,-0.25742 0,-0.51484 0,-0.78006c-0.63282,-0.32692 -1.26684,-0.65151 -1.90139,-0.97507c-0.35294,-0.181 -0.70589,-0.36199 -1.06953,-0.54848c-0.87709,-0.48083 -0.87709,-0.48083 -1.70942,-0.42659c-0.12871,-0.38613 -0.25742,-0.77226 -0.39003,-1.17009c-0.89739,-0.43151 -0.89739,-0.43151 -1.95014,-0.78006c-0.65102,-0.30673 -1.30102,-0.61561 -1.95014,-0.92632c-3.79152,-1.71509 -7.85806,-3.32972 -12.09088,-2.58394c-2.11959,2.11959 -1.57093,3.57169 -1.61191,6.75846c0.00101,1.66317 0.00201,3.32633 0.00305,5.0399c-0.00101,1.6511 -0.00201,3.3022 -0.00305,5.00333c0.04073,3.65631 0.21353,7.24474 0.44183,10.89033c0.03591,3.18507 0.05071,6.37042 0.04875,9.5557c0.00101,1.64507 0.00201,3.29013 0.00305,4.98505c-0.0518,4.18062 -0.0518,4.18062 -0.44183,7.30085c-0.20971,4.96865 0.02851,9.59293 1.17009,14.43105c0.10408,0.51232 0.20815,1.02465 0.31537,1.5525c0.76168,3.48339 1.98566,6.44689 3.66109,9.59226c0.57131,1.08451 1.05843,2.13917 1.48394,3.28629c0.25742,0 0.51484,0 0.78006,0c0.12067,0.37004 0.24133,0.74008 0.36565,1.12133c0.36524,1.16455 0.36524,1.16455 0.80443,1.9989c0.25742,0 0.51484,0 0.78006,0c0.04022,0.3459 0.08044,0.69181 0.12188,1.0482c0.17171,1.27031 0.17171,1.27031 0.83034,2.06898c0.93631,1.80691 1.01067,3.62221 1.24169,5.63408c0.09804,0.84365 0.19608,1.6873 0.29709,2.55652c0.17388,1.70334 0.31959,3.38934 0.40983,5.09779c0.46668,7.61632 1.55067,16.63583 7.2399,22.20725c0.62905,0.69576 1.25467,1.39464 1.87701,2.0964c5.54944,6.09382 12.94187,11.16627 20.74464,13.89476c0.34993,0.13123 0.69986,0.26245 1.06039,0.39765c2.82085,1.01232 5.62297,1.5632 8.58367,2.01718c1.27673,0.31537 1.27673,0.31537 2.05679,1.48546c-0.00914,1.15028 -0.00914,1.15028 -0.14626,2.60832c-0.62888,8.76497 -0.44946,17.20283 2.87646,25.47373c0.34993,0.01005 0.69986,0.02011 1.06039,0.03047c9.18911,0.41769 18.04308,3.64345 24.5596,10.30529c3.972,4.62093 6.1387,10.52784 6.14295,16.57621c0.00754,0.71595 0.01508,1.43189 0.02285,2.16953c-0.20699,2.26872 -0.83291,3.94995 -1.7536,6.02106c0,0.25742 0,0.51484 0,0.78006c14.41545,0 28.8309,0 43.68319,0c0,-1.15838 0,-2.31677 0,-3.51026c-0.79867,-0.79867 -2.43059,-0.73697 -3.48588,-0.90194c-5.22929,-0.91436 -9.10373,-2.66123 -12.87094,-6.5086c-1.97588,-2.874 -3.19228,-5.67053 -3.09585,-9.19005c0.52178,-2.64618 1.37355,-4.19634 3.58339,-5.72854c7.9785,-5.09936 20.14311,-4.77613 29.13025,-4.19281c3.00817,0.83805 5.30931,1.53081 7.41054,3.90028c1.51325,3.36821 1.56192,6.49411 0.40069,9.95639c-1.92243,4.62699 -5.69754,7.76771 -10.15902,9.85127c-1.66052,0.67683 -3.33454,1.16802 -5.06275,1.64391c-0.53893,0.45053 -0.53893,0.45053 -0.43878,1.682c-0.00034,1.47341 -0.00034,1.47341 0.43878,2.99834c17.7619,0 35.52379,0 53.82393,0c0.90097,-1.93064 1.80193,-3.86128 2.7302,-5.85043c0.56109,-1.18025 0.56109,-1.18025 1.13352,-2.38435c2.87871,-9.46859 1.36725,-22.14339 -0.75416,-31.81474c-0.50456,-2.75784 -0.66841,-5.49206 -0.84252,-8.28963c-0.06989,-1.07342 -0.13977,-2.14683 -0.21177,-3.25277c-0.15323,-4.39046 -0.13674,-8.21059 2.61898,-11.82883c1.37361,-2.31331 1.64462,-4.96423 2.1741,-7.57661c0.56002,-1.93048 1.09075,-2.89033 2.51233,-4.27812c0.25742,-0.12871 0.51484,-0.25742 0.78006,-0.39003c0.13232,-0.90973 0.26226,-1.81981 0.39003,-2.7302c0.97414,-0.97414 1.61041,-1.01319 2.94959,-1.29197c2.24231,-0.53996 4.07858,-1.37499 6.02106,-2.60832c0.41328,-0.24937 0.82656,-0.49875 1.25236,-0.75568c4.84204,-2.99287 9.43565,-6.62758 13.17869,-10.94517c0,-0.25742 0,-0.51484 0,-0.78006c0.25742,0 0.51484,0 0.78006,0c1.02709,-1.21182 1.95999,-2.48367 2.9115,-3.75555c0.54946,-0.73063 1.10763,-1.45565 1.69724,-2.15429c5.87517,-7.01032 4.8475,-18.35045 4.18519,-26.75504c-0.13654,-1.18592 -0.27779,-2.37132 -0.42507,-3.55596c-0.45267,-4.09343 -0.41492,-7.47581 0.99183,-11.36262c0.52083,-1.5436 1.04082,-3.08747 1.56011,-4.63159c0.26546,-0.78734 0.53093,-1.57468 0.80443,-2.38588c0.24937,-0.77326 0.49875,-1.54652 0.75568,-2.34322c0.22172,-0.67673 0.44344,-1.35346 0.67189,-2.0507c1.61728,-7.27033 0.93484,-15.38194 -1.06191,-22.5211c-2.331,-8.74922 -3.80025,-17.52962 -4.85098,-26.52193c-1.02611,-10.68193 -1.02611,-10.68193 -4.5097,-20.67151c-2.11198,-1.40799 -3.79437,-0.78379 -5.99669,0.19501z" fill="#693b32"/><path d="M10.11789,26.76299c5.15047,0.09241 9.81308,2.5178 14.30917,4.8266c0,0.25742 0,0.51484 0,0.78006c0.33786,0.10457 0.67572,0.20915 1.02382,0.3169c1.28433,0.45189 2.45183,1.00222 3.65652,1.63324c0,0.25742 0,0.51484 0,0.78006c0.32177,0.08044 0.64355,0.16089 0.97507,0.24377c1.41683,0.55661 2.46729,1.30684 3.65956,2.24266c0.79822,0.61265 1.61358,1.16134 2.45901,1.70637c2.04694,1.34196 3.95884,2.85137 5.88547,4.35887c0.97853,0.79759 0.97853,0.79759 1.84197,1.19903c0,0.25742 0,0.51484 0,0.78006c0.43213,0.14932 0.43213,0.14932 0.87299,0.30166c1.13394,0.50362 1.8112,1.04535 2.71039,1.89225c1.2038,1.1048 2.42074,2.1591 3.70527,3.16898c3.73772,2.96219 7.31071,6.05656 10.65265,9.45819c0.39417,0.32177 0.78835,0.64355 1.19446,0.97507c1.95175,1.66106 3.51188,3.60993 5.04599,5.65541c0,0.25742 0,0.51484 0,0.78006c0.25742,0 0.51484,0 0.78006,0c0.75873,0.82576 0.75873,0.82576 1.60887,1.90139c0.42384,0.52942 0.42384,0.52942 0.85623,1.06953c0.65513,0.92936 0.65513,0.92936 0.65513,1.70942c0.25742,0 0.51484,0 0.78006,0c0.74393,1.30188 1.48767,2.60386 2.23048,3.90638c0.55712,0.97305 1.1173,1.94436 1.682,2.91303c3.74265,6.44566 6.90883,13.01541 9.01027,20.1794c0.33312,1.14536 0.33312,1.14536 0.94765,2.42396c0.74446,1.84496 1.05272,3.72072 1.40166,5.67522c0.22315,1.28757 0.22315,1.28757 1.49917,1.95471c2.47967,0.42207 4.14792,-0.62059 6.27245,-1.74751c1.38085,-0.71908 2.79203,-1.24245 4.25832,-1.76275c0.58422,-0.23982 1.16844,-0.47965 1.77036,-0.72673c7.29921,-2.85599 14.93771,-4.73367 22.80143,-4.73367c-0.18929,1.72928 -0.18929,1.72928 -0.38241,3.4935c-1.51414,17.8854 0.21361,35.17169 3.13699,52.78944c4.00161,24.1549 4.00161,24.1549 -1.58449,32.25352c-2.76455,3.60132 -6.05892,5.8152 -9.89697,8.14184c-6.64771,4.05424 -12.62987,8.78341 -15.84491,16.03992c-0.44622,1.88252 -0.84154,3.77757 -1.19446,5.67979c-0.60967,3.27124 -1.21497,6.15959 -2.70582,9.14129c-0.39172,0.90934 -0.7824,1.81913 -1.17009,2.7302c-0.64355,0 -1.28709,0 -1.95014,0c0.78006,-2.34017 0.78006,-2.34017 1.56011,-4.68034c0.42829,-8.35519 -0.8379,-14.68104 -6.31359,-21.18342c-6.31375,-6.62998 -15.30653,-9.72176 -24.31431,-10.01581c-0.31826,-0.00101 -0.63651,-0.00201 -0.96441,-0.00305c-3.04638,-9.05487 -3.63623,-17.39486 -2.73934,-26.93177c0.11735,-1.22513 0.11735,-1.22513 -0.77091,-2.32037c-1.32195,-0.34684 -1.32195,-0.34684 -2.87646,-0.56067c-6.59533,-1.146 -13.15687,-3.65091 -18.57511,-7.62993c-0.65808,-0.44704 -1.31626,-0.89394 -1.97452,-1.34072c-1.7949,-1.2639 -3.42224,-2.64604 -5.04599,-4.11968c-0.32278,-0.27803 -0.64556,-0.55606 -0.97812,-0.84252c-2.05926,-1.79186 -3.68121,-3.56685 -5.26234,-5.78796c-0.28155,-0.27351 -0.5631,-0.54701 -0.85319,-0.82881c-5.64274,-5.83732 -5.23329,-19.14492 -5.87633,-26.47623c-0.33745,-3.16254 -0.76912,-5.76735 -2.24114,-8.57758c0,-0.38613 0,-0.77226 0,-1.17009c-0.25742,0 -0.51484,0 -0.78006,0c-1.17009,-2.24266 -1.17009,-2.24266 -1.17009,-3.12023c-0.25742,0 -0.51484,0 -0.78006,0c-4.14406,-7.73283 -6.6919,-15.92403 -6.67924,-24.74243c-0.00151,-1.04903 -0.00151,-1.04903 -0.00305,-2.11925c0.0518,-2.00042 0.0518,-2.00042 0.44183,-5.12065c0.03785,-3.05503 0.05062,-6.1104 0.04875,-9.16567c0.00101,-1.63702 0.00201,-3.27404 0.00305,-4.96067c-0.041,-3.63752 -0.2137,-7.20848 -0.44183,-10.83548c-0.04535,-3.20938 -0.06823,-6.41913 -0.07313,-9.62883c-0.00553,-1.65864 -0.01106,-3.31728 -0.01676,-5.02619c0.15243,-6.89553 0.15243,-6.89553 3.72203,-6.94281z" fill="#bc9970"/><path d="M225.87675,18.27987c0.77829,-0.00151 0.77829,-0.00151 1.5723,-0.00305c1.35291,0.0518 1.35291,0.0518 2.523,0.44183c0.12871,0.38613 0.25742,0.77226 0.39003,1.17009c0.45853,0.41026 0.45853,0.41026 0.92632,0.82881c3.37976,3.70165 3.19853,10.60234 3.72965,15.28424c0.51705,4.49718 1.06856,8.98164 1.73532,13.45903c0.68446,5.78083 0.69297,11.56266 0.70236,17.3776c0.00553,1.56362 0.01106,3.12724 0.01676,4.73824c-0.08989,4.08616 -0.08989,4.08616 -0.86995,7.98644c-0.18889,0.99094 -0.37589,1.98225 -0.56067,2.97397c-0.29873,1.60326 -0.59795,3.20634 -0.90347,4.80832c-0.29776,1.5652 -0.58854,3.13151 -0.87604,4.69863c-0.15158,0.81751 -0.15158,0.81751 -0.30623,1.65153c-0.70282,3.96971 -1.12972,7.91905 -1.43823,11.93853c-0.20568,2.01108 -0.20568,2.01108 -0.59723,3.9597c-0.53752,2.70024 -0.68351,5.40147 -0.87299,8.14489c-0.30696,2.07434 -0.91955,3.64106 -1.85568,5.50763c-0.25742,0 -0.51484,0 -0.78006,0c-0.55178,1.27334 -0.93689,2.53831 -1.29197,3.87591c-0.53596,1.82605 -1.33274,2.88726 -2.60832,4.31469c-0.69382,1.14908 -1.3154,2.32655 -1.95014,3.51026c-0.25742,0.38613 -0.51484,0.77226 -0.78006,1.17009c-0.25742,0 -0.51484,0 -0.78006,0c-0.09653,0.27904 -0.19306,0.55808 -0.29252,0.84557c-0.54161,1.22708 -1.207,2.13351 -2.04765,3.1766c-0.27351,0.3444 -0.54701,0.6888 -0.82881,1.04363c-0.24133,0.25893 -0.48266,0.51786 -0.7313,0.78463c-0.25742,0 -0.51484,0 -0.78006,0c-0.25742,0.51484 -0.51484,1.02968 -0.78006,1.56011c-0.25742,0 -0.51484,0 -0.78006,0c-0.25742,0.51484 -0.51484,1.02968 -0.78006,1.56011c-0.90194,0.73587 -0.90194,0.73587 -1.95014,1.43823c-0.34591,0.23479 -0.69181,0.46959 -1.0482,0.7115c-1.78397,1.14813 -3.49464,1.36111 -5.58228,0.9705c-1.97926,-1.89848 -2.21953,-3.62659 -2.34017,-6.24046c-0.25742,0 -0.51484,0 -0.78006,0c-0.39463,-0.80218 -0.78357,-1.60717 -1.17009,-2.4133c-0.32579,-0.67195 -0.32579,-0.67195 -0.65817,-1.35748c-0.51191,-1.29959 -0.51191,-1.29959 -0.51191,-3.24973c-0.25742,0 -0.51484,0 -0.78006,0c-0.12268,-0.31976 -0.24535,-0.63953 -0.37174,-0.96898c-0.16692,-0.42031 -0.33384,-0.84063 -0.50582,-1.27368c-0.1629,-0.41629 -0.32579,-0.83259 -0.49363,-1.2615c-0.58472,-1.18789 -1.1877,-1.83671 -2.13906,-2.73629c-1.17009,-2.38196 -1.17009,-2.38196 -1.17009,-3.90028c-0.51484,-0.25742 -1.02968,-0.51484 -1.56011,-0.78006c-2.34017,-2.57633 -2.34017,-2.57633 -2.34017,-3.90028c-0.25742,0 -0.51484,0 -0.78006,0c-1.56011,-2.11074 -1.56011,-2.11074 -1.56011,-3.12023c-0.51484,-0.12871 -1.02968,-0.25742 -1.56011,-0.39003c-0.12871,-0.38613 -0.25742,-0.77226 -0.39003,-1.17009c-0.38613,-0.12871 -0.77226,-0.25742 -1.17009,-0.39003c-0.19306,-0.38613 -0.19306,-0.38613 -0.39003,-0.78006c-0.51484,-0.25742 -1.02968,-0.51484 -1.56011,-0.78006c0,-0.38613 0,-0.77226 0,-1.17009c-0.38613,0 -0.77226,0 -1.17009,0c0,-0.25742 0,-0.51484 0,-0.78006c-0.25742,0 -0.51484,0 -0.78006,0c0,-0.25742 0,-0.51484 0,-0.78006c-0.51484,-0.25742 -1.02968,-0.51484 -1.56011,-0.78006c-2.62672,-1.92626 -2.62672,-1.92626 -3.02272,-3.51026c0.29252,-1.17009 0.29252,-1.17009 1.27826,-2.16039c1.32367,-1.85272 1.15933,-3.14675 1.08629,-5.39641c-0.0176,-0.70287 -0.03519,-1.40575 -0.05332,-2.12992c-0.03394,-0.80393 -0.03394,-0.80393 -0.06856,-1.6241c-0.25742,0 -0.51484,0 -0.78006,0c-2.72923,-6.49082 -3.15532,-14.80726 -0.78006,-21.45157c0.11161,-0.34842 0.22323,-0.69684 0.33823,-1.05582c0.2652,-0.82214 0.54648,-1.63908 0.83186,-2.45444c0.25742,0 0.51484,0 0.78006,0c0,-0.38613 0,-0.77226 0,-1.17009c0.25742,0 0.51484,0 0.78006,0c0.04827,-0.32982 0.09653,-0.65964 0.14626,-0.99945c0.25299,-1.39145 0.61768,-2.7171 1.02382,-4.07092c0.25742,0 0.51484,0 0.78006,0c0.03972,-0.27502 0.07944,-0.55003 0.12036,-0.83338c0.30834,-1.27691 0.81775,-2.24232 1.46413,-3.3838c0.21368,-0.3806 0.42735,-0.7612 0.64751,-1.15333c0.1644,-0.28708 0.32881,-0.57416 0.4982,-0.86995c0.25742,0 0.51484,0 0.78006,0c0.12871,-0.51484 0.25742,-1.02968 0.39003,-1.56011c0.42579,-0.82383 0.8749,-1.63581 1.34072,-2.43768c0.24083,-0.42032 0.48165,-0.84063 0.72978,-1.27368c0.2177,-0.31976 0.4354,-0.63953 0.6597,-0.96898c0.25742,0 0.51484,0 0.78006,0c0.76282,-1.43371 0.76282,-1.43371 1.09696,-2.51081c0.58882,-1.27062 1.36531,-2.03259 2.4133,-2.94959c0.25742,0 0.51484,0 0.78006,0c0.25742,-0.51484 0.51484,-1.02968 0.78006,-1.56011c0.38775,-0.65141 0.77755,-1.30161 1.17009,-1.95014c0.19306,-0.38613 0.19306,-0.38613 0.39003,-0.78006c0.25742,0 0.51484,0 0.78006,0c0,-0.25742 0,-0.51484 0,-0.78006c0.28155,-0.20915 0.5631,-0.41831 0.85319,-0.6338c1.38527,-1.16979 2.13322,-2.49048 3.0471,-4.04655c0.78006,-1.17009 0.78006,-1.17009 1.95014,-1.56011c0.24133,-0.44244 0.48266,-0.88488 0.7313,-1.34072c0.90387,-1.51531 1.20121,-1.62978 2.77895,-2.16953c0.25742,-0.51484 0.51484,-1.02968 0.78006,-1.56011c1.69012,-1.86347 1.69012,-1.86347 3.12023,-2.34017c0.37004,-0.44244 0.74008,-0.88488 1.12133,-1.34072c1.20236,-1.37069 1.56059,-1.59511 3.16898,-2.16953c0.54496,-0.38619 1.0806,-0.78573 1.60887,-1.19446c1.51136,-1.14571 1.51136,-1.14571 2.68145,-1.53574c0,-0.25742 0,-0.51484 0,-0.78006c1.02968,-0.12871 2.05935,-0.25742 3.12023,-0.39003c0,-0.38613 0,-0.77226 0,-1.17009c1.42009,-0.47336 2.59871,-0.44168 4.0953,-0.43878z" fill="#d8a892"/><path d="M19.1373,36.92811c0.5626,0.00151 1.1252,0.00301 1.70485,0.00457c1.56532,0.11233 2.87954,0.40614 4.36497,0.89737c0,0.25742 0,0.51484 0,0.78006c0.33635,0.10408 0.67271,0.20815 1.01925,0.31537c1.31332,0.46201 2.49787,1.02138 3.73422,1.65915c1.14823,0.59073 2.21178,1.12729 3.43713,1.53574c0,0.25742 0,0.51484 0,0.78006c0.24938,0.08849 0.49875,0.17698 0.75568,0.26814c1.65616,0.70979 3.15928,1.53025 4.70472,2.46205c0.19306,0.57919 0.19306,0.57919 0.39003,1.17009c0.93244,0.43151 0.93244,0.43151 1.95014,0.78006c0.38613,0.25742 0.77226,0.51484 1.17009,0.78006c0,0.25742 0,0.51484 0,0.78006c0.51484,0.25742 1.02968,0.51484 1.56011,0.78006c1.94201,1.14054 3.52449,2.26607 5.07037,3.90028c0.57919,0.38613 0.57919,0.38613 1.17009,0.78006c0,0.25742 0,0.51484 0,0.78006c0.25742,0 0.51484,0 0.78006,0c0.65005,0.65005 1.30009,1.30009 1.95014,1.95014c0.57919,0.19306 0.57919,0.19306 1.17009,0.39003c0.15284,0.28155 0.30568,0.5631 0.46316,0.85319c1.01078,1.56845 2.31123,2.34756 3.82715,3.43713c0.38613,0.38613 0.77226,0.77226 1.17009,1.17009c0,0.25742 0,0.51484 0,0.78006c0.25742,0 0.51484,0 0.78006,0c1.56011,1.74366 1.56011,1.74366 1.56011,2.7302c0.51484,0.25742 1.02968,0.51484 1.56011,0.78006c1.17009,1.17009 1.17009,1.17009 1.56011,2.34017c0.29764,0.22524 0.59528,0.45048 0.90194,0.68255c1.5538,1.30085 2.36256,2.87049 2.99834,4.77785c0.25742,0 0.51484,0 0.78006,0c0,0.38613 0,0.77226 0,1.17009c0.25742,0 0.51484,0 0.78006,0c0.25742,0.51484 0.51484,1.02968 0.78006,1.56011c0.25742,0.12871 0.51484,0.25742 0.78006,0.39003c0.53928,0.8988 1.05612,1.81115 1.56011,2.7302c0.27351,0.44244 0.54701,0.88488 0.82881,1.34072c0.78121,1.4843 1.11953,2.88643 1.51136,4.5097c0.25742,0.12871 0.51484,0.25742 0.78006,0.39003c0.2367,0.95928 0.43372,1.92853 0.60942,2.90084c0.2982,1.92225 0.2982,1.92225 0.95069,3.72965c0.03869,1.18582 0.05059,2.37256 0.04875,3.55901c0.00101,0.64455 0.00201,1.28911 0.00305,1.95319c-0.04651,1.70468 -0.21163,3.33104 -0.44183,5.01857c-0.20173,2.8514 0.00147,5.1712 1.17009,7.80057c0.51484,0.25742 1.02968,0.51484 1.56011,0.78006c0.59747,1.56835 0.41333,2.27997 -0.19501,3.85153c-0.91816,1.51497 -1.87635,2.72482 -3.08671,4.00388c-0.73617,0.8043 -0.73617,0.8043 -1.39862,2.28532c-0.25742,0 -0.51484,0 -0.78006,0c-0.25742,0.51484 -0.51484,1.02968 -0.78006,1.56011c-0.32982,0.39417 -0.65964,0.78835 -0.99945,1.19446c-1.0035,1.06851 -1.0035,1.06851 -1.34072,2.31579c-0.25742,0 -0.51484,0 -0.78006,0c0,0.38613 0,0.77226 0,1.17009c-0.25742,0 -0.51484,0 -0.78006,0c-0.38613,1.54451 -0.38613,1.54451 -0.78006,3.12023c-0.25742,0 -0.51484,0 -0.78006,0c-0.0724,0.38613 -0.0724,0.38613 -0.14626,0.78006c-0.30022,1.44107 -0.66116,2.86382 -1.02382,4.29031c-0.25742,0 -0.51484,0 -0.78006,0c0,0.38613 0,0.77226 0,1.17009c-0.25742,0 -0.51484,0 -0.78006,0c-0.04827,0.26547 -0.09653,0.53093 -0.14626,0.80443c-0.24377,1.14571 -0.24377,1.14571 -0.60942,2.36455c-0.32292,1.1777 -0.55666,2.2865 -0.75568,3.48588c-0.53161,3.05464 -1.38171,6.05596 -2.42854,8.9737c-0.35226,1.14868 -0.45244,2.11605 -0.49668,3.3122c-0.11391,1.30638 -0.25489,2.14656 -0.78006,3.364c-1.66489,1.14957 -3.35868,0.96879 -5.31414,0.70693c-1.34893,-0.50903 -2.32452,-1.15933 -3.51026,-1.97452c-1.13679,-0.81062 -1.13679,-0.81062 -2.46205,-1.14571c-0.34591,-0.12871 -0.69181,-0.25742 -1.0482,-0.39003c-0.12871,-0.51484 -0.25742,-1.02968 -0.39003,-1.56011c-0.38613,0 -0.77226,0 -1.17009,0c-0.85319,-0.7313 -0.85319,-0.7313 -1.56011,-1.56011c0,-0.25742 0,-0.51484 0,-0.78006c-0.51484,-0.12871 -1.02968,-0.25742 -1.56011,-0.39003c-0.95069,-0.87756 -0.95069,-0.87756 -1.95014,-1.95014c-0.36199,-0.3459 -0.72399,-0.69181 -1.09696,-1.0482c-0.85319,-0.90194 -0.85319,-0.90194 -0.85319,-1.682c-0.38613,-0.12871 -0.77226,-0.25742 -1.17009,-0.39003c-0.12871,-0.51484 -0.25742,-1.02968 -0.39003,-1.56011c-0.25742,0 -0.51484,0 -0.78006,0c0,-0.25742 0,-0.51484 0,-0.78006c-0.25742,0 -0.51484,0 -0.78006,0c-0.24133,-0.44244 -0.48266,-0.88488 -0.7313,-1.34072c-0.66209,-1.39372 -0.66209,-1.39372 -1.60887,-1.7795c0,-0.38613 0,-0.77226 0,-1.17009c-0.25742,0 -0.51484,0 -0.78006,0c0,-0.38613 0,-0.77226 0,-1.17009c-0.25742,0 -0.51484,0 -0.78006,0c0,-0.51484 0,-1.02968 0,-1.56011c-0.38613,-0.12871 -0.77226,-0.25742 -1.17009,-0.39003c-0.12871,-0.64355 -0.25742,-1.28709 -0.39003,-1.95014c-0.25742,0 -0.51484,0 -0.78006,0c-0.78006,-1.56011 -0.78006,-1.56011 -0.78006,-3.51026c-0.25742,0 -0.51484,0 -0.78006,0c-0.58918,-1.58341 -0.78006,-2.55317 -0.78006,-4.29031c-0.25742,0 -0.51484,0 -0.78006,0c-0.10357,-0.43691 -0.20714,-0.87382 -0.31385,-1.32396c-0.13776,-0.56863 -0.27552,-1.13727 -0.41745,-1.72313c-0.13575,-0.56562 -0.27149,-1.13123 -0.41136,-1.71399c-0.33899,-1.49177 -0.33899,-1.49177 -1.19751,-2.64945c-0.78482,-2.19097 -1.40071,-4.36811 -1.95014,-6.63048c-0.24772,-1.00049 -0.5,-1.99986 -0.75568,-2.99834c-0.12419,-0.49221 -0.24837,-0.98442 -0.37632,-1.49155c-0.39929,-1.26891 -0.91033,-2.18575 -1.5982,-3.31067c-0.26814,-1.682 -0.26814,-1.682 -0.39003,-3.12023c-0.25742,0 -0.51484,0 -0.78006,0c-0.12871,-1.02968 -0.25742,-2.05935 -0.39003,-3.12023c-0.25742,0 -0.51484,0 -0.78006,0c-0.98709,-2.49757 -1.64753,-4.7303 -1.95014,-7.41054c-0.2896,-0.83259 -0.2896,-0.83259 -0.58504,-1.682c-0.46906,-1.46582 -0.68004,-2.47937 -0.78006,-3.97341c-0.11366,-1.68165 -0.48909,-3.04398 -1.06649,-4.63463c-1.27094,-4.34454 -1.18596,-9.0192 -1.07867,-13.50169c-0.25742,0 -0.51484,0 -0.78006,0c-1.58049,-28.18077 -1.58049,-28.18077 0.78006,-31.20228c0.25742,0 0.51484,0 0.78006,0c0,-0.25742 0,-0.51484 0,-0.78006c1.9329,-1.1573 3.39336,-1.31792 5.63104,-1.29197z" fill="#d8a892"/><path d="M228.50792,152.64468c0.78622,0.42403 1.563,0.8663 2.32646,1.33006c1.34381,0.58533 2.02279,0.42194 3.42799,0.08379c2.69797,-0.19271 4.34476,0.08546 6.63048,1.56011c1.32609,1.29631 2.43972,2.72412 3.53463,4.21718c0.72167,0.92631 0.72167,0.92631 1.87701,1.38948c2.56072,1.33157 3.76807,3.53751 4.78394,6.12619c1.1619,3.94517 1.30378,7.83992 1.48089,11.937c0.55082,11.1047 1.80648,22.0011 3.3777,33.00768c0.81921,6.24107 1.32701,12.29908 1.32701,18.59796c-16.98964,0 -33.97928,0 -51.48376,0c0.22075,-3.09057 0.45269,-6.10159 0.80443,-9.16567c0.93404,-9.9608 0.11485,-19.55923 -1.19446,-29.44715c-2.2477,-17.93459 -2.2477,-17.93459 1.56011,-23.01168c0.80977,-2.03002 1.02561,-4.0352 1.26454,-6.19323c0.35956,-1.48084 0.75862,-2.10696 1.85569,-3.16746c1.66026,-0.95432 3.36301,-1.77852 5.08256,-2.6205c1.48234,-0.85206 2.13099,-1.48399 3.10804,-2.83989c3.24006,-2.19327 6.42756,-3.41739 10.23672,-1.80388z" fill="#fefdfd"/><path d="M126.59166,96.68626c0.6991,0.00679 0.6991,0.00679 1.41233,0.01371c0.70061,0.00528 0.70061,0.00528 1.41538,0.01066c0.36149,0.00452 0.72298,0.00905 1.09543,0.01371c6.22848,17.69035 8.11723,35.43699 8.33686,54.11645c-0.458,19.59033 -0.458,19.59033 7.82647,36.64439c3.8861,3.48859 8.61986,5.06599 13.42703,6.93672c4.5914,1.88042 8.87071,4.234 12.53271,7.61013c0.36954,0.33786 0.36954,0.33786 0.74654,0.68255c3.06217,3.12962 4.45358,7.51618 5.90832,11.55459c1.24219,3.37025 2.66324,5.72788 5.24101,8.21497c2.63996,2.55522 3.96258,4.75077 4.48533,8.40999c-15.31642,0 -30.63283,0 -46.41339,0c-0.37761,-1.51045 -0.41976,-2.74429 -0.39003,-4.29031c0.43439,-0.16089 0.86879,-0.32177 1.31635,-0.48754c0.59528,-0.22524 1.19056,-0.45048 1.80388,-0.68255c0.45778,-0.15611 0.45778,-0.15611 0.9248,-0.31538c4.42429,-1.59274 8.58014,-4.65717 10.91013,-8.80916c1.53851,-3.31329 1.82501,-6.27655 1.01164,-9.86497c-1.25097,-2.78442 -2.77517,-3.73872 -5.57923,-4.85708c-9.07187,-2.54311 -22.8477,-1.58705 -31.27846,3.1507c-1.87251,1.21394 -2.94396,2.30213 -3.80278,4.38782c-0.70707,3.92101 0.47958,6.75034 2.36455,10.11636c3.79426,4.84822 9.25469,6.81462 15.18673,7.60555c0.42635,0.04827 0.8527,0.09653 1.29197,0.14626c0.39003,0.39003 0.39003,0.39003 0.39003,3.90028c-13.7719,0 -27.54381,0 -41.73304,0c0.39003,-1.95014 0.39003,-1.95014 1.09696,-3.21773c1.81384,-3.48966 2.27507,-7.69611 2.94959,-11.53022c1.49634,-7.45017 6.90459,-12.60744 13.00197,-16.78951c1.06908,-0.68346 2.14801,-1.34704 3.23297,-2.00499c6.45401,-3.95427 11.17018,-7.69498 13.26097,-15.21111c0.47749,-2.48547 0.46938,-4.95793 0.48754,-7.48367c0.01006,-0.82605 0.02011,-1.65211 0.03047,-2.50319c-0.29959,-6.75144 -1.75358,-13.43722 -2.85818,-20.09408c-2.85748,-18.00108 -4.77614,-36.90048 -1.17009,-54.94526c0.39003,-0.39003 0.39003,-0.39003 1.53726,-0.42812z" fill="#fefdfd"/><path d="M71.6205,201.642c0.49774,0.12067 0.49774,0.12067 1.00554,0.24377c6.06282,1.63659 10.99437,5.24493 14.20557,10.67703c2.1177,4.36214 3.22444,8.84764 2.04612,13.68909c-1.24959,3.24893 -2.8462,5.02046 -5.94641,6.59239c-1.43135,0.25836 -2.83729,0.36065 -4.29031,0.39003c0.18046,-1.65424 0.41652,-3.23087 0.80443,-4.85098c0.38223,-1.86018 0.56033,-3.39859 0.36565,-5.28976c-0.77288,-1.2613 -0.77288,-1.2613 -1.95014,-1.95014c-1.05163,-0.06934 -1.05163,-0.06934 -1.95014,0.39003c-1.01078,1.51617 -1.03551,2.75384 -1.26759,4.55846c-0.46363,2.94419 -0.89287,4.66598 -3.02272,6.75237c-1.76779,0.8839 -2.77182,0.87272 -4.7291,0.85319c-0.8341,-0.00377 -0.8341,-0.00377 -1.68504,-0.00762c-1.38643,-0.06551 -1.38643,-0.06551 -2.16649,-0.45554c0.36647,-2.98411 0.36647,-2.98411 0.60942,-4.38782c0.34665,-2.9713 0.55246,-6.06017 -0.60942,-8.87315c-1.1021,-0.90501 -1.1021,-0.90501 -2.36455,-0.70693c-1.26171,0.21453 -1.26171,0.21453 -1.92577,1.48698c-0.02573,1.12107 -0.01187,2.24322 0.02438,3.364c0.03255,3.13505 0.0516,5.60919 -1.97452,8.14184c-1.9956,1.4967 -4.65002,1.17401 -7.02051,0.97507c-2.34131,-0.83389 -3.53276,-1.6934 -4.68034,-3.90028c-0.52029,-1.28704 -0.78813,-2.39974 -0.97507,-3.7784c-0.1092,-1.34253 -0.1092,-1.34253 -0.97507,-2.46205c-1.12063,-0.39266 -1.12063,-0.39266 -2.34017,-0.39003c-0.51484,0.38613 -1.02968,0.77226 -1.56011,1.17009c-0.19148,2.48922 0.1113,4.93682 0.39003,7.41054c-1.54451,0 -3.08903,0 -4.68034,0c-0.34642,-8.14075 1.69069,-16.87696 7.0586,-23.1945c7.27111,-7.69429 19.72134,-8.96555 29.60407,-6.44766z" fill="#fdfdfd"/><path d="M180.77971,163.32171c0.59427,-0.00201 1.18855,-0.00402 1.80084,-0.00609c4.09286,0.24117 6.89606,1.71793 9.94877,4.39391c2.04909,2.56999 3.23259,5.31197 3.51026,8.58063c0.06109,0.59654 0.06109,0.59654 0.12341,1.20513c0.235,4.20499 -1.28925,7.22572 -3.90181,10.44697c-2.89813,3.05329 -6.59251,4.54527 -10.75016,4.85098c-4.33105,-0.28494 -8.36143,-1.33391 -11.31083,-4.68034c-1.20006,-1.76342 -2.14756,-3.64043 -3.02272,-5.58228c-0.16893,-0.37004 -0.33786,-0.74008 -0.51191,-1.12133c-0.79623,-3.61921 -0.36992,-7.25575 1.29197,-10.57952c0.25742,0 0.51484,0 0.78006,0c0.02413,-0.28155 0.04827,-0.5631 0.07313,-0.85319c0.4165,-1.44174 1.13916,-2.08427 2.26704,-3.0471c0.25742,0 0.51484,0 0.78006,0c0,-0.25742 0,-0.51484 0,-0.78006c2.98938,-2.06164 5.23141,-2.84015 8.9219,-2.82771z" fill="#683b32"/><path d="M96.97235,173.16992c3.375,2.05912 5.98305,5.26377 7.1683,9.05902c0.98589,4.4024 0.13479,8.13803 -2.09793,12.00252c-2.42051,3.5329 -5.60484,5.59401 -9.75071,6.63048c-3.37218,0.23699 -6.02927,0.29187 -8.97065,-1.56011c-0.3087,-0.11413 -0.6174,-0.22826 -0.93546,-0.34585c-2.76194,-1.18191 -4.85783,-3.48797 -6.08505,-6.18713c-0.2699,-0.6787 -0.53045,-1.36122 -0.78006,-2.04765c-0.14128,-0.32077 -0.28256,-0.64153 -0.42812,-0.97203c-1.36202,-3.78535 -0.03464,-8.02523 1.5982,-11.50889c4.36817,-6.64418 13.25636,-8.88401 20.28148,-5.07037z" fill="#693b32"/><path d="M238.16265,179.80041c2.11282,1.43701 3.69207,3.07208 4.68034,5.4604c0.28574,2.57168 0.05402,4.19326 -1.56011,6.24046c-5.44174,3.65617 -12.67525,5.07049 -19.11139,3.90028c-1.61537,-0.74999 -2.18333,-1.28825 -3.07147,-2.82771c-0.81042,-2.7014 -0.62782,-4.67801 0.6338,-7.22314c1.93667,-3.45574 4.18506,-5.33897 7.86913,-6.77522c3.58292,-1.00158 7.29363,-0.50477 10.55972,1.22493z" fill="#fa9495"/><path d="M262.73444,223.09357c0.12871,0 0.25742,0 0.39003,0c0.12871,0.77226 0.25742,1.54451 0.39003,2.34017c0.12871,0 0.25742,0 0.39003,0c0,1.67322 0,3.34644 0,5.07037c2.42687,-0.01357 4.85375,-0.02715 7.35417,-0.04114c4.69764,-0.01584 4.69764,-0.01584 9.49018,-0.03199c4.6901,-0.02036 4.6901,-0.02036 9.47495,-0.04114c7.61317,0.11427 7.61317,0.11427 9.56331,1.28435c0.23158,1.01164 0.23158,1.01164 0.19501,2.14516c-0.00402,0.37406 -0.00804,0.74813 -0.01219,1.13352c-0.18283,1.01164 -0.18283,1.01164 -1.35291,2.18172c-35.14304,0.12055 -70.28633,0.17332 -105.42957,0.19501c-51.14537,-1.09729 -51.14537,-1.09729 -107.916,1.3651c-3.50346,1.02409 -7.00163,1.02167 -10.6039,0.51191c-1.84875,-0.12005 -2.97239,0.20359 -4.69863,0.79529c-2.8355,0.66482 -5.90649,0.13595 -8.63547,-0.77091c-2.41219,-0.71714 -4.09263,-0.35413 -6.48422,0.24377c-3.15385,0.22496 -6.441,0.18389 -9.36068,-1.17009c-0.19306,-0.57919 -0.19306,-0.57919 -0.39003,-1.17009c0.27451,0.08446 0.54903,0.16893 0.83186,0.25596c3.98231,1.12295 7.6984,1.46715 11.64905,0.13407c1.73361,0.09906 3.29597,0.33097 4.96982,0.79225c1.7433,0.39664 3.28797,0.4817 5.07342,0.47535c0.56914,0.00201 1.13827,0.00402 1.72466,0.00609c1.55998,-0.01217 1.55998,-0.01217 3.05319,-0.88366c1.45019,-0.07632 2.5197,-0.07017 3.90028,0.39003c3.3556,0.22691 6.20732,0.00654 9.36068,-1.17009c0.12871,-0.12871 0.25742,-0.25742 0.39003,-0.39003c54.77612,-0.11423 109.55224,-0.17592 164.32843,-0.24224c24.72948,2.07354 24.72948,2.07354 48.6271,-0.92784c-0.10219,-1.53305 -0.10219,-1.53305 -0.39003,-3.12023c-3.26715,-2.1781 -15.01127,-0.99478 -18.40447,-1.02382c-3.175,-0.02916 -6.35,-0.05832 -9.62121,-0.08836c-2.46408,-0.01911 -4.92816,-0.03821 -7.46691,-0.0579c-0.36331,-1.81654 -0.42939,-3.34857 -0.41441,-5.19225c0.00352,-0.56159 0.00704,-1.12319 0.01066,-1.7018c0.00679,-0.64179 0.00679,-0.64179 0.01371,-1.29654z" fill="#401a12"/><path d="M25.1477,24.5249c3.68125,1.87353 7.18053,3.95741 10.59019,6.28464c0.39417,0.22524 0.78835,0.45048 1.19446,0.68255c0.24938,0.16089 0.49875,0.32177 0.75568,0.48754c0,0.25742 0,0.51484 0,0.78006c0.77226,0.19306 0.77226,0.19306 1.56011,0.39003c0.70066,0.46971 1.38095,0.9702 2.04765,1.48698c1.89621,1.45738 3.80574,2.89252 5.72854,4.31469c2.45375,1.8368 4.80441,3.75973 7.12412,5.76206c0.90096,0.75751 1.80258,1.44797 2.77286,2.11164c0.34591,0.24938 0.69181,0.49875 1.0482,0.75568c0,0.25742 0,0.51484 0,0.78006c0.51484,0.25742 1.02968,0.51484 1.56011,0.78006c0,0.25742 0,0.51484 0,0.78006c0.51484,0.12871 1.02968,0.25742 1.56011,0.39003c12.48091,12.48091 12.48091,12.48091 12.48091,13.651c0.51484,0.25742 1.02968,0.51484 1.56011,0.78006c0.73587,0.87452 0.73587,0.87452 1.43823,1.90139c0.2348,0.33686 0.46959,0.67371 0.7115,1.02078c0.58047,0.97812 0.58047,0.97812 0.9705,2.53823c0.25742,0 0.51484,0 0.78006,0c1.79143,2.48358 3.24205,5.10237 4.68034,7.80057c0.41416,0.7477 0.82856,1.49525 1.24322,2.24266c0.85173,1.5615 1.60031,3.12689 2.26704,4.77785c0.22524,0.47462 0.45048,0.94923 0.68255,1.43823c0.48754,1.29197 0.48754,1.29197 0.09751,2.85208c-0.99064,-1.34444 -1.64895,-2.56456 -2.26704,-4.12577c-3.0176,-7.47935 -7.33052,-13.86644 -12.25847,-20.17788c-1.07563,-1.43823 -1.07563,-1.43823 -1.85569,-2.99834c-0.25742,0 -0.51484,0 -0.78006,0c-0.79304,-0.89878 -1.57134,-1.81063 -2.34017,-2.7302c-0.64253,-0.65747 -1.29125,-1.30906 -1.95014,-1.95014c-0.38613,-0.38613 -0.77226,-0.77226 -1.17009,-1.17009c0,-0.25742 0,-0.51484 0,-0.78006c-0.51484,-0.25742 -1.02968,-0.51484 -1.56011,-0.78006c-0.52004,-0.52004 -1.04007,-1.04008 -1.56011,-1.56011c-0.38613,-0.12871 -0.77226,-0.25742 -1.17009,-0.39003c-0.38613,-0.48266 -0.38613,-0.48266 -0.78006,-0.97507c-1.32964,-1.55125 -2.79189,-2.73579 -4.38325,-4.00846c-0.90038,-0.72463 -1.77364,-1.46453 -2.63726,-2.232c-3.07369,-2.7051 -6.18721,-5.17738 -9.65778,-7.36026c-0.28809,-0.20966 -0.57617,-0.41931 -0.87299,-0.63532c0,-0.25742 0,-0.51484 0,-0.78006c-0.28457,-0.10156 -0.56914,-0.20312 -0.86233,-0.30776c-1.11875,-0.48573 -1.92807,-1.04474 -2.8917,-1.78865c-5.22242,-4.01642 -5.22242,-4.01642 -11.06706,-6.87425c0,-0.25742 0,-0.51484 0,-0.78006c-1.15838,-0.38613 -2.31677,-0.77226 -3.51026,-1.17009c0,-0.25742 0,-0.51484 0,-0.78006c-0.24937,-0.03218 -0.49875,-0.06435 -0.75568,-0.09751c-1.33789,-0.32765 -2.51958,-0.87193 -3.76926,-1.4428c-4.28424,-1.87697 -8.77993,-2.55591 -13.39199,-1.67743c-2.48761,1.01535 -3.49182,2.42067 -4.70472,4.77785c-1.94864,7.19712 -0.96035,15.6578 -0.58504,23.01168c0.44478,9.16249 0.71798,18.56213 -0.19501,27.69202c-0.12871,0 -0.25742,0 -0.39003,0c-0.62206,-9.33088 -0.50564,-18.65902 -0.53629,-28.00892c-0.0191,-3.9925 -0.03821,-7.98501 -0.05789,-12.0985c0.23599,-11.34683 0.23599,-11.34683 2.98311,-14.74033c0.7313,-0.53629 0.7313,-0.53629 1.90139,-0.53629c0,-0.25742 0,-0.51484 0,-0.78006c6.4882,-3.2441 14.35923,0.62818 20.22206,3.46607z" fill="#4a2018"/><path d="M237.38259,1.5574c5.68382,4.53143 5.97751,13.93067 6.84987,20.61361c0.16447,1.18363 0.38298,2.34632 0.60942,3.5194c0.49669,2.86375 0.40744,5.73273 0.34127,8.62938c-0.12871,0 -0.25742,0 -0.39003,0c-0.52655,-2.33187 -0.86536,-4.61626 -1.09696,-6.99614c-0.929,-13.17646 -0.929,-13.17646 -6.70361,-24.59617c-0.77226,-0.19306 -0.77226,-0.19306 -1.56011,-0.39003c0,-0.25742 0,-0.51484 0,-0.78006c-6.88041,-0.72191 -12.65933,1.76539 -17.98092,6.07134c-0.74045,0.55914 -0.74045,0.55914 -1.5205,0.55914c0,0.25742 0,0.51484 0,0.78006c-0.58954,0.52692 -1.20446,1.02549 -1.82826,1.51136c-5.43946,4.36542 -10.86288,9.28332 -15.28424,14.67787c-0.27351,0.32077 -0.54701,0.64154 -0.82881,0.97203c-0.25742,0 -0.51484,0 -0.78006,0c0,0.25742 0,0.51484 0,0.78006c-0.25742,0 -0.51484,0 -0.78006,0c-0.38613,0.77226 -0.38613,0.77226 -0.78006,1.56011c-0.43247,0.52417 -0.88042,1.03584 -1.34072,1.53574c-1.01168,1.12641 -1.78558,2.23294 -2.55956,3.53463c-0.64892,0.65117 -1.29917,1.30102 -1.95014,1.95014c-2.65585,2.99329 -5.09748,6.09856 -7.41054,9.36068c-0.52002,0.69881 -1.04006,1.39761 -1.56011,2.0964c-3.88292,5.36177 -7.01394,11.15187 -9.30127,17.36693c-0.46053,1.23797 -0.95998,2.45327 -1.47327,3.67023c-0.74323,1.76547 -1.43904,3.53941 -2.0964,5.33851c-0.25742,-0.12871 -0.51484,-0.25742 -0.78006,-0.39003c2.8206,-9.79785 6.91171,-19.61539 13.26097,-27.69202c0.25742,0 0.51484,0 0.78006,0c0.19306,-0.77226 0.19306,-0.77226 0.39003,-1.56011c0.25742,0 0.51484,0 0.78006,0c0.11388,-0.38462 0.11388,-0.38462 0.23005,-0.77701c0.78468,-1.67369 1.92113,-2.92932 3.10956,-4.34211c0.4892,-0.58523 0.97839,-1.17045 1.48241,-1.77341c0.46808,-0.55707 0.93616,-1.11414 1.41842,-1.68809c0.68422,-0.82743 1.36708,-1.65599 2.04765,-2.48643c0.26747,-0.32479 0.53495,-0.64958 0.81053,-0.98421c0.70116,-0.85784 0.70116,-0.85784 1.43214,-1.98975c0.25742,0 0.51484,0 0.78006,0c0.38613,-0.77226 0.38613,-0.77226 0.78006,-1.56011c0.43802,-0.56612 0.89403,-1.11869 1.3651,-1.65762c0.23731,-0.27552 0.47461,-0.55104 0.71911,-0.8349c0.64598,-0.6277 0.64598,-0.6277 1.42604,-0.6277c0.25742,-0.51484 0.51484,-1.02968 0.78006,-1.56011c0.60645,-0.66012 1.23455,-1.30064 1.87701,-1.92577c0.33233,-0.32529 0.66466,-0.65059 1.00707,-0.98573c0.50302,-0.48945 0.50302,-0.48945 1.01621,-0.98878c1.05158,-1.0465 2.09701,-2.0987 3.14003,-3.15375c5.19626,-5.23982 11.09673,-10.95814 17.9215,-14.00751c0.5631,-0.26547 1.12621,-0.53093 1.70637,-0.80443c4.09963,-1.7923 7.98193,-2.29034 11.94462,0.02438z" fill="#491f17"/><path d="M1.41538,87.75369c0.11815,0.56059 0.2363,1.12118 0.35803,1.69876c1.67616,7.70004 4.23834,14.23125 8.34448,20.97165c3.2771,5.73492 3.14889,12.6247 3.7784,19.06264c0.25742,0 0.51484,0 0.78006,0c-0.0181,0.28909 -0.0362,0.57819 -0.05485,0.87604c-0.20441,5.96447 1.29228,12.14683 4.73519,17.06527c0,0.25742 0,0.51484 0,0.78006c0.25742,0 0.51484,0 0.78006,0c0.55057,0.83897 1.10001,1.67871 1.64239,2.523c1.19376,1.68899 2.72128,3.55912 4.59807,4.49752c0,0.25742 0,0.51484 0,0.78006c0.77226,0.38613 0.77226,0.38613 1.56011,0.78006c0.84579,0.65502 1.68155,1.32307 2.51081,1.9989c2.55904,2.0339 5.19588,3.77236 8.01996,5.41164c0.74813,0.44646 0.74813,0.44646 1.51136,0.90194c1.29345,0.69846 2.58851,1.27067 3.94904,1.82826c0.49171,0.22323 0.49171,0.22323 0.99336,0.45097c3.22046,1.42745 6.49762,2.28018 9.92744,3.05929c-0.05983,0.37054 -0.11966,0.74109 -0.1813,1.12286c-0.23748,1.82877 -0.3392,3.6414 -0.42812,5.48325c-0.03268,0.66315 -0.06536,1.32631 -0.09903,2.00956c-0.02363,0.50328 -0.04726,1.00655 -0.07161,1.52507c-0.12871,0 -0.25742,0 -0.39003,0c-0.12871,-3.21773 -0.25742,-6.43547 -0.39003,-9.75071c-1.02968,-0.12871 -2.05935,-0.25742 -3.12023,-0.39003c-6.65484,-1.81056 -13.29731,-5.08597 -18.72137,-9.36068c-0.30267,-0.22926 -0.60534,-0.45853 -0.91718,-0.69474c-5.47366,-4.23991 -10.94169,-8.93468 -13.90391,-15.29643c-0.20061,-0.42384 -0.40121,-0.84767 -0.60789,-1.28435c-2.71905,-6.21787 -3.36131,-12.80534 -3.88048,-19.50904c-0.44284,-6.39682 -0.44284,-6.39682 -2.53214,-12.35903c0,-0.38613 0,-0.77226 0,-1.17009c-0.25742,0 -0.51484,0 -0.78006,0c-4.21894,-7.38315 -7.08278,-14.22869 -8.58063,-22.62165c0.78006,-0.39003 0.78006,-0.39003 1.17009,-0.39003z" fill="#491e16"/><path d="M262.73444,223.09357c0.12871,0 0.25742,0 0.39003,0c0.19306,1.15838 0.19306,1.15838 0.39003,2.34017c0.12871,0 0.25742,0 0.39003,0c0,1.67322 0,3.34644 0,5.07037c2.42687,-0.01357 4.85375,-0.02715 7.35417,-0.04114c4.69764,-0.01584 4.69764,-0.01584 9.49018,-0.03199c4.6901,-0.02036 4.6901,-0.02036 9.47495,-0.04114c7.61317,0.11427 7.61317,0.11427 9.56331,1.28435c0.23158,1.01164 0.23158,1.01164 0.19501,2.14516c-0.00402,0.37406 -0.00804,0.74813 -0.01219,1.13352c-0.18283,1.01164 -0.18283,1.01164 -1.35291,2.18172c-13.02506,0.08664 -26.05065,0.0976 -39.07598,0.07313c-7.22935,-0.01056 -14.45869,-0.02112 -21.90711,-0.03199c-5.61746,-0.01358 -11.23492,-0.02715 -17.02261,-0.04114c0,-0.12871 0,-0.25742 0,-0.39003c8.19467,-0.02866 8.19467,-0.02866 16.55488,-0.0579c7.03779,-0.02916 14.07558,-0.05832 21.32664,-0.08836c7.03176,-0.02715 14.06351,-0.0543 21.30835,-0.08227c9.76724,0.51199 9.76724,0.51199 19.20586,-0.94155c-0.10219,-1.53305 -0.10219,-1.53305 -0.39003,-3.12023c-3.26715,-2.1781 -15.01127,-0.99478 -18.40447,-1.02382c-4.7625,-0.04374 -4.7625,-0.04374 -9.62121,-0.08836c-2.46408,-0.01911 -4.92816,-0.03821 -7.46691,-0.0579c-0.36331,-1.81654 -0.42939,-3.34857 -0.41441,-5.19225c0.00352,-0.56159 0.00704,-1.12319 0.01066,-1.7018c0.00453,-0.42786 0.00905,-0.85572 0.01371,-1.29654z" fill="#431d15"/><path d="M162.49713,95.55426c0,0.25742 0,0.51484 0,0.78006c-2.57818,-0.2957 -5.12225,-0.72577 -7.67869,-1.17009c-8.26008,-1.37336 -16.51643,-1.71783 -24.84298,-0.55914c-1.24141,0.14881 -2.38289,0.18533 -3.62909,0.14474c-9.82683,-0.16088 -20.43425,2.70684 -29.32984,6.73865c-1.6043,0.69626 -1.6043,0.69626 -2.77438,0.69626c0,0.25742 0,0.51484 0,0.78006c-0.51484,0 -1.02968,0 -1.56011,0c-0.25742,-1.15838 -0.51484,-2.31677 -0.78006,-3.51026c0.25742,0 0.51484,0 0.78006,0c0.25742,0.64355 0.51484,1.28709 0.78006,1.95014c1.93542,-0.61288 3.79555,-1.28207 5.65541,-2.0964c2.97394,-1.26098 6.0569,-2.11274 9.16567,-2.97397c0.6717,-0.19508 1.3434,-0.39015 2.03546,-0.59113c6.15914,-1.5814 12.56014,-2.27066 18.90724,-2.46053c1.67435,-0.0462 1.67435,-0.0462 3.30915,-0.2651c8.6484,-0.89007 21.86301,-1.51284 29.96211,2.53671z" fill="#4c2019"/><path d="M231.45904,158.98264c1.55691,0.18317 2.10601,0.58964 3.19336,1.70637c1.52549,2.10412 1.52797,4.52214 1.17009,7.02051c-0.80443,1.48698 -0.80443,1.48698 -1.95014,2.34017c-1.34072,0.17064 -1.34072,0.17064 -2.7302,-0.39003c-1.55105,-1.76619 -2.64883,-3.60215 -2.82771,-5.97231c0.14262,-2.10361 0.8234,-4.39522 3.1446,-4.70472z" fill="#f48f8f"/><path d="M217.10111,162.63916c1.72582,0.19724 2.65829,0.74083 3.90028,1.95014c1.3418,1.94331 1.49626,3.94272 1.17009,6.24046c-0.63178,1.52095 -1.01913,2.42316 -2.46205,3.24211c-1.76194,-0.20488 -2.57822,-1.21743 -3.7784,-2.46205c-1.19198,-1.93697 -1.32979,-3.50234 -1.03754,-5.70264c0.38864,-1.4005 1.18287,-2.26954 2.20762,-3.26801z" fill="#f58d8f"/><path d="M243.01363,166.24692c1.83799,0.38694 2.30762,1.09944 3.33962,2.63269c1.00652,2.01303 1.0395,3.63392 0.78006,5.85043c-0.66425,1.4269 -1.08527,2.0835 -2.46205,2.82771c-1.80147,-0.16758 -2.57726,-1.14757 -3.7784,-2.43768c-1.00028,-2.21938 -1.44945,-3.87527 -0.78006,-6.24046c0.78268,-1.65567 1.08498,-2.23651 2.90084,-2.63269z" fill="#f38b8e"/><path d="M256.10396,164.97933c1.30812,0.97367 1.56471,1.57911 1.95471,3.19183c0.66378,5.16062 0.93377,10.26533 1.07105,15.46554c0.1731,5.12033 0.51871,10.25407 1.45956,15.29643c0.25171,1.48275 0.41636,2.9696 0.58504,4.464c0.21306,1.8809 0.44605,3.74352 0.78006,5.60666c0.73966,4.27226 1.47372,8.61013 0.78006,12.91969c-0.12871,0 -0.25742,0 -0.39003,0c-0.09905,-0.86125 -0.19809,-1.72249 -0.30014,-2.60984c-0.13424,-1.14179 -0.26848,-2.28359 -0.40679,-3.45998c-0.13123,-1.12671 -0.26245,-2.25342 -0.39765,-3.41427c-0.74221,-5.70677 -0.74221,-5.70677 -2.40568,-11.18742c-1.05014,-7.21372 -0.98024,-14.56991 -1.17009,-21.84159c-0.12854,-4.10744 -0.47535,-8.00125 -1.31787,-12.02842c-0.24224,-1.23255 -0.24224,-1.23255 -0.24224,-2.40264z" fill="#532b25"/><path d="M210.47063,175.51009c1.45735,0.03238 2.21768,0.30373 3.41275,1.14571c1.1786,1.60421 1.59819,3.13366 1.65762,5.09475c-0.23062,1.43786 -0.61787,2.52927 -1.17009,3.90028c-1.17009,0.78006 -1.17009,0.78006 -2.07203,0.80443c-1.61655,-0.6391 -2.3664,-1.77424 -3.38837,-3.1446c-0.53504,-2.14014 -0.81041,-4.17229 0.14626,-6.21608c0.6338,-0.80443 0.6338,-0.80443 1.41385,-1.58449z" fill="#f79597"/><path d="M244.79313,123.63631c0.25742,0.38613 0.51484,0.77226 0.78006,1.17009c-1.07612,3.80229 -3.11675,7.75423 -5.4604,10.9208c-0.25742,0 -0.51484,0 -0.78006,0c-0.25742,0.51484 -0.51484,1.02968 -0.78006,1.56011c-0.86474,1.20573 -1.79848,2.35577 -2.7302,3.51026c-0.22172,0.27552 -0.44344,0.55104 -0.67189,0.8349c-0.53647,0.64851 -1.10016,1.27432 -1.66828,1.8953c-0.25742,0 -0.51484,0 -0.78006,0c-0.25742,0.51484 -0.51484,1.02968 -0.78006,1.56011c-0.25742,0 -0.51484,0 -0.78006,0c0,0.38613 0,0.77226 0,1.17009c1.41109,0.47036 2.63224,0.46257 4.11968,0.51191c4.86788,0.28866 8.03291,1.88996 11.48146,5.33851c0,0.25742 0,0.51484 0,0.78006c0.38613,0.12871 0.77226,0.25742 1.17009,0.39003c0.38613,0.38613 0.77226,0.77226 1.17009,1.17009c0.97015,0.77418 1.95209,1.53161 2.93588,2.28837c1.93703,1.6708 3.06239,3.56566 4.08464,5.90223c0,0.64355 0,1.28709 0,1.95014c-1.12052,-1.49402 -2.03437,-3.00956 -2.9633,-4.62397c-0.47752,-0.88359 -0.47752,-0.88359 -1.32701,-1.22646c-0.12871,-0.38613 -0.25742,-0.77226 -0.39003,-1.17009c-0.90484,-0.62022 -0.90484,-0.62022 -1.9989,-1.21884c-1.93214,-1.17771 -3.04321,-2.36049 -4.34059,-4.18366c-1.67124,-2.05634 -4.00155,-3.28395 -6.53145,-3.95818c-1.67893,-0.12656 -3.35092,-0.17162 -5.0338,-0.21787c-1.59238,-0.1717 -2.57144,-0.53208 -3.93685,-1.34225c0.41474,-1.65897 0.74312,-2.06289 1.92577,-3.21773c0.27703,-0.27552 0.55405,-0.55104 0.83947,-0.8349c0.74502,-0.6277 0.74502,-0.6277 1.52507,-0.6277c0.25742,-0.51484 0.51484,-1.02968 0.78006,-1.56011c0.58073,-0.70917 1.17578,-1.4067 1.7795,-2.0964c3.28088,-3.89723 5.80846,-7.94758 7.58118,-12.72468c0.25863,-0.6506 0.51822,-1.30083 0.78006,-1.95014z" fill="#4b1e16"/><path d="M95.80226,175.12007c1.56011,0.78006 1.56011,0.78006 2.34017,1.95014c0.25778,3.3511 0.25778,3.3511 -0.56067,5.09475c-1.49728,1.13209 -2.6557,1.17076 -4.5097,1.14571c-2.10521,-1.0902 -2.10521,-1.0902 -2.7302,-2.34017c-0.31839,-3.5023 -0.31839,-3.5023 0.97507,-5.11912c1.64721,-0.88243 2.64015,-0.93963 4.48533,-0.7313z" fill="#faf9f9"/><path d="M186.91962,166.73293c0.92936,0.19654 0.92936,0.19654 2.1482,0.92784c1.03432,1.72387 1.11695,3.15875 0.7313,5.11912c-0.7313,1.21884 -0.7313,1.21884 -1.95014,1.95014c-1.42374,0.2553 -2.41974,0.16867 -3.90028,0c-1.00486,-0.73527 -1.4028,-1.2455 -1.95014,-2.34017c-0.18248,-1.82483 -0.142,-2.85516 0.7313,-4.48533c1.48444,-1.18756 2.33051,-1.30204 4.18976,-1.17161z" fill="#fbfafa"/><path d="M54.06922,182.53061c0.12871,0 0.25742,0 0.39003,0c0.31897,1.48654 0.63536,2.97363 0.95069,4.46095c0.17647,0.82807 0.35294,1.65613 0.53476,2.50928c0.38369,1.97378 0.67171,3.90035 0.85471,5.90071c-1.52792,0.76396 -2.7762,1.07778 -4.43657,1.43823c-4.50507,1.0997 -8.36788,3.03427 -11.94462,5.97231c-0.41831,0.32177 -0.83661,0.64355 -1.26759,0.97507c-1.13603,1.03275 -1.83667,2.00566 -2.63269,3.31524c-0.34591,0.52288 -0.69181,1.04576 -1.0482,1.58449c-0.76515,1.30282 -1.07367,2.04511 -1.29197,3.48588c-0.38613,0.19306 -0.38613,0.19306 -0.78006,0.39003c-1.55865,4.18099 -2.69505,8.48742 -3.51026,12.87094c-0.12871,0 -0.25742,0 -0.39003,0c-0.2515,-5.70066 1.60042,-11.38569 4.29031,-16.3812c0.25742,0 0.51484,0 0.78006,0c0.12871,-0.51484 0.25742,-1.02968 0.39003,-1.56011c0.47738,-0.75674 0.9843,-1.49526 1.51136,-2.21829c0.2725,-0.37959 0.545,-0.75918 0.82576,-1.15028c0.7831,-0.92175 0.7831,-0.92175 1.95319,-1.31177c0.25742,-0.51484 0.51484,-1.02968 0.78006,-1.56011c4.73846,-3.73561 10.2241,-5.22607 15.99117,-6.63048c-0.18351,-0.54048 -0.36702,-1.08096 -0.55609,-1.63782c-1.17343,-3.57851 -1.50968,-6.71448 -1.39405,-10.45307z" fill="#4c221b"/><path d="M247.91336,83.85341c0.12871,0 0.25742,0 0.39003,0c0.19212,2.20943 -0.31627,3.68019 -1.16094,5.66608c-1.53489,3.70834 -1.30497,7.31939 -0.7892,11.22703c0.75251,7.10579 1.62323,15.5732 -0.39003,22.49977c-0.25742,0 -0.51484,0 -0.78006,0c0.04223,-0.41479 0.04223,-0.41479 0.08532,-0.83795c0.62139,-7.12872 0.42372,-14.22768 -0.29709,-21.3373c-0.75967,-8.55112 -0.75967,-8.55112 0.99183,-12.53728c0.34994,-0.85297 0.69931,-1.70617 1.0482,-2.55956c0.29941,-0.70745 0.59962,-1.41457 0.90194,-2.12078z" fill="#4b1f18"/><path d="M86.05155,236.74456c0.38613,0.12871 0.77226,0.25742 1.17009,0.39003c-2.61362,2.52932 -5.85277,2.43794 -9.28146,2.39807c-1.1091,-0.0514 -2.17444,-0.17064 -3.27258,-0.32604c-1.84875,-0.12005 -2.97239,0.20359 -4.69863,0.79529c-2.8355,0.66482 -5.90649,0.13595 -8.63547,-0.77091c-2.41219,-0.71714 -4.09263,-0.35413 -6.48422,0.24377c-3.15385,0.22496 -6.441,0.18389 -9.36068,-1.17009c-0.12871,-0.38613 -0.25742,-0.77226 -0.39003,-1.17009c0.27451,0.08446 0.54903,0.16893 0.83186,0.25596c3.98231,1.12295 7.6984,1.46715 11.64905,0.13407c1.73361,0.09906 3.29597,0.33097 4.96982,0.79225c1.7433,0.39664 3.28797,0.4817 5.07342,0.47535c0.56914,0.00201 1.13827,0.00402 1.72466,0.00609c1.55998,-0.01217 1.55998,-0.01217 3.05319,-0.88366c1.45019,-0.07632 2.5197,-0.07017 3.90028,0.39003c3.3556,0.22691 6.20732,0.00654 9.36068,-1.17009c0.12871,-0.12871 0.25742,-0.25742 0.39003,-0.39003z" fill="#481d17"/><path d="M262.73444,223.09357c0.12871,0 0.25742,0 0.39003,0c0.12871,0.77226 0.25742,1.54451 0.39003,2.34017c0.12871,0 0.25742,0 0.39003,0c0,1.67322 0,3.34644 0,5.07037c11.19772,0 22.39543,0 33.93248,0c-1.96178,1.96178 -5.50473,0.82805 -8.27896,0.85623c-3.14031,-0.00905 -6.28062,-0.0181 -9.51609,-0.02742c-3.14232,-0.00704 -6.28464,-0.01408 -9.52218,-0.02133c-2.44045,-0.00905 -4.8809,-0.0181 -7.39531,-0.02742c-0.36331,-1.81654 -0.42939,-3.34857 -0.41441,-5.19225c0.00352,-0.56159 0.00704,-1.12319 0.01066,-1.7018c0.00453,-0.42786 0.00905,-0.85572 0.01371,-1.29654z" fill="#532c25"/><path d="M68.8903,58.89159c1.68775,0.84388 2.33805,1.6775 3.51026,3.12023c0.38613,0.25742 0.77226,0.51484 1.17009,0.78006c0,0.38613 0,0.77226 0,1.17009c0.51484,0.25742 1.02968,0.51484 1.56011,0.78006c0.73587,0.87452 0.73587,0.87452 1.43823,1.90139c0.23479,0.33686 0.46959,0.67371 0.7115,1.02078c0.58047,0.97812 0.58047,0.97812 0.9705,2.53823c0.25742,0 0.51484,0 0.78006,0c1.79143,2.48358 3.24205,5.10237 4.68034,7.80057c0.41416,0.74769 0.82856,1.49525 1.24322,2.24266c0.85173,1.5615 1.60031,3.12689 2.26704,4.77785c0.22524,0.47462 0.45048,0.94923 0.68255,1.43823c0.48754,1.29197 0.48754,1.29197 0.09751,2.85208c-0.99064,-1.34444 -1.64895,-2.56456 -2.26704,-4.12577c-3.0176,-7.47935 -7.33052,-13.86644 -12.25847,-20.17788c-1.07562,-1.43823 -1.07562,-1.43823 -1.85568,-2.99834c-0.25742,0 -0.51484,0 -0.78006,0c-1.95014,-2.13587 -1.95014,-2.13587 -1.95014,-3.12023z" fill="#471c16"/><path d="M162.49713,95.55426c0,0.25742 0,0.51484 0,0.78006c-2.57818,-0.2957 -5.12225,-0.72577 -7.67869,-1.17009c-7.97599,-1.32613 -15.84424,-1.5535 -23.91362,-0.78006c-0.93419,0.02328 -1.8689,0.03442 -2.80333,0.02438c-0.43188,-0.00352 -0.86376,-0.00704 -1.30873,-0.01066c-0.31624,-0.00453 -0.63249,-0.00905 -0.95831,-0.01371c0,-0.12871 0,-0.25742 0,-0.39003c10.58305,-1.84818 26.60813,-3.46716 36.66267,1.56011z" fill="#481e17"/><path d="M28.71737,157.95881c1.4384,0.7192 2.63993,1.51026 3.94904,2.43768c2.14344,1.498 4.3218,2.87982 6.58173,4.19281c0.33334,0.20312 0.66668,0.40624 1.01011,0.61551c1.18465,0.69889 2.39777,1.19952 3.67023,1.72466c0.49322,0.22399 0.49322,0.22399 0.9964,0.4525c3.21952,1.42654 6.49576,2.27892 9.92439,3.05776c-0.05983,0.37054 -0.11966,0.74109 -0.1813,1.12286c-0.23748,1.82877 -0.3392,3.6414 -0.42812,5.48325c-0.04902,0.99473 -0.04902,0.99473 -0.09903,2.00956c-0.02363,0.50328 -0.04726,1.00655 -0.07161,1.52507c-0.12871,0 -0.25742,0 -0.39003,0c-0.19306,-4.8266 -0.19306,-4.8266 -0.39003,-9.75071c-1.02968,-0.12871 -2.05935,-0.25742 -3.12023,-0.39003c-6.67594,-1.8163 -13.25731,-5.11204 -18.72137,-9.36068c-0.60113,-0.44712 -1.20242,-0.89404 -1.80388,-1.34072c-0.43439,-0.32982 -0.86879,-0.65964 -1.31635,-0.99945c0.12871,-0.25742 0.25742,-0.51484 0.39003,-0.78006z" fill="#451912"/><path d="M236.99257,1.94743c2.00333,1.00166 3.05787,2.02489 3.92619,4.12729c1.70096,5.19627 2.60736,10.68509 3.31372,16.09629c0.16447,1.18363 0.38298,2.34632 0.60942,3.5194c0.49669,2.86375 0.40744,5.73273 0.34127,8.62938c-0.12871,0 -0.25742,0 -0.39003,0c-0.52655,-2.33187 -0.86536,-4.61626 -1.09696,-6.99614c-1.05474,-12.51105 -1.05474,-12.51105 -5.92356,-23.81611c-0.25742,-0.51484 -0.51484,-1.02968 -0.78006,-1.56011z" fill="#481d15"/><path d="M258.83416,190.33118c0.12871,0 0.25742,0 0.39003,0c0.82263,4.9797 1.62203,9.94812 2.17258,14.96582c0.14763,1.24683 0.33669,2.4713 0.55762,3.7068c0.73966,4.27226 1.47372,8.61013 0.78006,12.91969c-0.12871,0 -0.25742,0 -0.39003,0c-0.09905,-0.83862 -0.19809,-1.67724 -0.30014,-2.54128c-1.05911,-10.12553 -1.05911,-10.12553 -2.89322,-20.12913c-0.49384,-2.96307 -0.37566,-5.92514 -0.3169,-8.9219z" fill="#471f18"/><path d="M244.79313,123.63631c0.25742,0.38613 0.51484,0.77226 0.78006,1.17009c-1.07612,3.80229 -3.11675,7.75423 -5.4604,10.9208c-0.25742,0 -0.51484,0 -0.78006,0c-0.25742,0.51484 -0.51484,1.02968 -0.78006,1.56011c-0.86474,1.20573 -1.79848,2.35577 -2.7302,3.51026c-0.22172,0.27552 -0.44344,0.55104 -0.67189,0.8349c-0.53647,0.64851 -1.10016,1.27432 -1.66828,1.8953c-0.25742,0 -0.51484,0 -0.78006,0c-0.25742,0.51484 -0.51484,1.02968 -0.78006,1.56011c-0.25742,0 -0.51484,0 -0.78006,0c-0.12871,0.25742 -0.25742,0.51484 -0.39003,0.78006c-0.25742,0 -0.51484,0 -0.78006,0c0.83617,-1.67234 1.75019,-2.64442 3.12023,-3.90028c0.25742,0 0.51484,0 0.78006,0c0.25742,-0.51484 0.51484,-1.02968 0.78006,-1.56011c0.58073,-0.70917 1.17578,-1.4067 1.7795,-2.0964c3.28088,-3.89723 5.80846,-7.94758 7.58118,-12.72468c0.25863,-0.6506 0.51822,-1.30083 0.78006,-1.95014z" fill="#441812"/><path d="M0.63532,45.24059c0.12871,0 0.25742,0 0.39003,0c0.64881,10.56629 1.05328,21.44951 0,31.98233c-0.12871,0 -0.25742,0 -0.39003,0c-0.41518,-6.22773 -0.44159,-12.38239 -0.43878,-18.62386c-0.00151,-3.37561 -0.00151,-3.37561 -0.00305,-6.81941c0.0518,-5.36898 0.0518,-5.36898 0.44183,-6.53907z" fill="#50221b"/><path d="M3.36552,230.50411c0.12871,0.25742 0.25742,0.51484 0.39003,0.78006c-0.38613,0.57919 -0.38613,0.57919 -0.78006,1.17009c-0.25742,0 -0.51484,0 -0.78006,0c0,1.02968 0,2.05935 0,3.12023c6.46989,2.15663 15.73645,0.97463 22.37788,1.02382c5.50685,0.04374 5.50685,0.04374 11.12495,0.08836c2.84468,0.01911 5.68936,0.03821 8.62024,0.0579c-0.12871,0.25742 -0.25742,0.51484 -0.39003,0.78006c-6.85802,-0.00232 -13.71603,-0.0217 -20.574,-0.04875c-3.81905,-0.00905 -7.6381,-0.0181 -11.57288,-0.02742c-3.03473,-0.10357 -6.06945,-0.20714 -9.19614,-0.31385c-1.56011,-2.34017 -1.56011,-2.34017 -1.56011,-4.29031c0.51191,-1.07258 0.51191,-1.07258 1.17009,-1.95014c0.38613,-0.12871 0.77226,-0.25742 1.17009,-0.39003z" fill="#421b14"/><path d="M29.1074,226.21379c0.12871,0 0.25742,0 0.39003,0c0,1.54451 0,3.08903 0,4.68034c-3.67122,1.22374 -9.80958,0.42183 -13.52911,0.41441c-2.27001,-0.00352 -4.54002,-0.00704 -6.87882,-0.01066c-1.7602,-0.00453 -3.5204,-0.00905 -5.33394,-0.01371c0,-0.25742 0,-0.51484 0,-0.78006c8.10869,0 16.21738,0 24.57179,0c0,-0.77226 0,-1.54451 0,-2.34017c0.39003,-1.12133 0.39003,-1.12133 0.78006,-1.95014z" fill="#532e27"/><path d="M237.38259,1.5574c-0.12871,0.25742 -0.25742,0.51484 -0.39003,0.78006c-0.51484,0 -1.02968,0 -1.56011,0c0,-0.25742 0,-0.51484 0,-0.78006c-5.54314,-0.5816 -9.59303,0.83428 -14.43105,3.51026c-0.36401,0.30367 -0.72801,0.60735 -1.10305,0.92023c-0.41931,0.31674 -0.41931,0.31674 -0.8471,0.63989c-0.51484,-0.12871 -1.02968,-0.25742 -1.56011,-0.39003c4.05047,-2.92178 4.05047,-2.92178 6.24046,-3.90028c0.5631,-0.26547 1.12621,-0.53093 1.70637,-0.80443c4.39266,-1.92041 7.6241,-1.89585 11.94462,0.02438z" fill="#50231b"/><path d="M221.39143,166.14941c0.78006,0.78006 0.78006,0.78006 0.92632,2.60832c-0.04266,1.96216 -0.46988,3.23153 -1.70637,4.80223c-0.90194,0.51191 -0.90194,0.51191 -1.95014,0.39003c-1.70359,-1.21273 -2.96333,-2.22413 -3.51026,-4.29031c0.25742,0 0.51484,0 0.78006,0c0,0.25742 0,0.51484 0,0.78006c0.25742,0 0.51484,0 0.78006,0c0,0.38613 0,0.77226 0,1.17009c0.41026,-0.25742 0.82052,-0.51484 1.24322,-0.78006c1.48698,-0.78006 1.48698,-0.78006 3.43713,-0.78006c0,-1.28709 0,-2.57419 0,-3.90028zM216.71109,170.0497c0.78006,0.39003 0.78006,0.39003 0.78006,0.39003z" fill="#f39296"/><path d="M6.87578,20.27877c0.12871,0.38613 0.25742,0.77226 0.39003,1.17009c-0.46657,0.18502 -0.93314,0.37004 -1.41385,0.56067c-2.17837,1.12395 -2.94039,2.2974 -4.04655,4.5097c-0.7041,4.48867 -0.92067,8.9174 -1.02382,13.45598c-0.04374,1.81601 -0.04374,1.81601 -0.08836,3.66871c-0.01911,0.91303 -0.03821,1.82606 -0.0579,2.76676c-0.12871,0 -0.25742,0 -0.39003,0c-0.05263,-3.1038 -0.09047,-6.20785 -0.12188,-9.31193c-0.02263,-1.72853 -0.04525,-3.45705 -0.06856,-5.23796c0.16998,-4.07142 0.33434,-6.23055 2.9694,-9.48561c0.7313,-0.53629 0.7313,-0.53629 1.90139,-0.53629c0,-0.25742 0,-0.51484 0,-0.78006c0.64355,-0.25742 1.28709,-0.51484 1.95014,-0.78006z" fill="#441611"/><path d="M86.05155,236.74456c0.38613,0.12871 0.77226,0.25742 1.17009,0.39003c-2.61362,2.52932 -5.85277,2.43794 -9.28146,2.39807c-1.1091,-0.0514 -2.17444,-0.17064 -3.27258,-0.32604c-1.93396,-0.12558 -3.07608,0.15233 -4.86469,0.77396c-1.22958,0.36949 -2.36965,0.35727 -3.6428,0.27424c-0.12871,-0.25742 -0.25742,-0.51484 -0.39003,-0.78006c0.44596,-0.07994 0.89192,-0.15988 1.35139,-0.24224c0.57567,-0.10508 1.15135,-0.21016 1.74446,-0.31842c0.862,-0.15611 0.862,-0.15611 1.74141,-0.31537c1.32421,-0.14394 1.32421,-0.14394 1.79322,-0.68407c1.42885,-0.05292 2.53759,-0.0642 3.90028,0.39003c3.3556,0.22691 6.20732,0.00654 9.36068,-1.17009c0.12871,-0.12871 0.25742,-0.25742 0.39003,-0.39003z" fill="#491a14"/><path d="M54.06922,182.53061c0.12871,0 0.25742,0 0.39003,0c0.31897,1.48654 0.63536,2.97363 0.95069,4.46095c0.26471,1.2421 0.26471,1.2421 0.53476,2.50928c0.38369,1.97378 0.67171,3.90035 0.85471,5.90071c-1.5715,0.78575 -2.9788,1.18661 -4.68034,1.60887c-0.82052,0.20664 -0.82052,0.20664 -1.65762,0.41745c-1.46261,0.31385 -1.46261,0.31385 -3.02272,0.31385c0,-0.25742 0,-0.51484 0,-0.78006c1.13751,-0.31715 2.27511,-0.63399 3.41275,-0.95069c0.63349,-0.17647 1.26698,-0.35294 1.91967,-0.53476c1.07944,-0.29714 2.16204,-0.58317 3.2482,-0.85471c-0.17698,-0.49875 -0.35395,-0.9975 -0.53629,-1.51136c-1.18058,-3.58651 -1.52998,-6.82466 -1.41385,-10.57952z" fill="#481a14"/></g></svg>