<svg id="svg" version="1.1" viewBox="0 0 300 198.76282757782076" width="300" height="198.76282757782076" xmlns="http://www.w3.org/2000/svg"><g xmlns="http://www.w3.org/2000/svg" fill="none" fill-rule="nonzero" stroke="none" stroke-width="1" stroke-linecap="butt" stroke-linejoin="miter" stroke-miterlimit="10" stroke-dasharray="" stroke-dashoffset="0" font-family="none" font-weight="none" font-size="none" text-anchor="none" style="mix-blend-mode: normal"><path d="M232.2411,3.88871c3.87499,3.51267 5.56693,6.47818 6.40247,11.70408c0.09632,2.59476 -0.34723,5.00059 -0.95145,7.51403c-2.65554,11.47192 -1.50715,23.81496 -1.53239,35.50103c-0.29807,10.20585 -0.77151,20.98993 -6.10362,29.97835c0,0.38644 0,0.77287 0,1.17102c0.89078,0.80344 1.80463,1.58158 2.73237,2.34203c0.65592,0.64516 1.30597,1.29633 1.9517,1.9517c0.3638,0.35926 0.72759,0.71853 1.1024,1.08868c0.36883,0.3653 0.73765,0.73061 1.11765,1.10698c0.55777,0.55097 0.55777,0.55097 1.1268,1.11308c1.73385,1.80365 1.73385,1.80365 1.70316,3.5222c-0.36594,1.36619 -0.36594,1.36619 -1.20304,2.04318c-1.36532,0.60515 -2.22325,0.55266 -3.7006,0.39644c-0.43977,-0.04227 -0.87954,-0.08454 -1.33264,-0.12808c-1.15577,-0.16467 -1.15577,-0.16467 -2.32679,-0.55501c0.25762,0.29788 0.51525,0.59576 0.78068,0.90266c0.78068,1.04904 0.78068,1.04904 0.78068,2.22005c0.38644,0.12881 0.77287,0.25762 1.17102,0.39034c1.10676,1.43468 1.40055,2.49575 1.17102,4.29373c-1.30193,1.7359 -2.35363,2.23217 -4.29373,3.12271c0.12881,0.51524 0.25762,1.03049 0.39034,1.56136c0.36229,0.0483 0.72457,0.09661 1.09783,0.14638c1.24421,0.24396 1.24421,0.24396 2.41522,1.02464c1.16971,0.06861 2.34146,0.10437 3.51305,0.12198c5.89747,0.26685 8.83393,2.46652 12.88119,6.51378c0.56976,0.39348 1.1478,0.77513 1.73213,1.14662c1.24885,0.81968 2.38514,1.59156 3.34228,2.75677c0,0.25762 0,0.51524 0,0.78068c0.25762,0 0.51525,0 0.78068,0c3.71864,6.5448 4.01592,12.52506 4.1626,19.99878c0.28681,7.48389 1.27798,14.84546 2.8635,22.15785c0.29796,1.89151 0.57403,3.78659 0.82947,5.68431c0.12982,0.94244 0.25964,1.88488 0.39339,2.85588c0.40429,3.78613 0.57612,7.56332 0.72883,11.3671c3.48094,-0.02038 3.48094,-0.02038 7.0322,-0.04117c2.99286,-0.01057 5.98573,-0.02113 9.06928,-0.03202c2.98884,-0.01359 5.97768,-0.02717 9.05709,-0.04117c7.23957,0.11436 7.23957,0.11436 8.80093,1.28537c0.09758,1.82971 0.09758,1.82971 0,3.51305c-11.44043,6.53738 -144.23019,1.49711 -164.03391,1.46377c-26.21827,-2.73578 -26.21827,-2.73578 -50.6526,2.04928c-2.55122,0.01245 -5.10028,-0.02681 -7.65126,-0.06252c-2.08429,0.05217 -3.64264,0.28369 -5.62027,0.84319c-3.43718,0.29905 -6.50202,-0.05864 -9.75848,-1.17102c-0.38644,-0.12881 -0.77287,-0.25763 -1.17102,-0.39034c-0.51525,0.25762 -1.0305,0.51524 -1.56136,0.78068c-5.05691,0.74561 -8.71934,0.3244 -13.27153,-1.9517c-7.10683,-0.09324 -14.21498,-0.09474 -21.32227,-0.04879c-22.27031,0.13239 -22.27031,0.13239 -24.73774,-1.51256c-0.19517,-1.73213 -0.19517,-1.73213 0,-3.51305c4.43688,-2.66213 12.17877,-1.39909 17.10173,-1.43938c2.77197,-0.02566 5.54394,-0.05133 8.39992,-0.07776c2.14703,-0.01459 4.29406,-0.02919 6.50616,-0.04422c0.17762,-1.28661 0.35524,-2.57322 0.53824,-3.89882c0.91668,-6.2268 2.16212,-11.94246 5.70718,-17.17949c0.22039,-0.33814 0.44078,-0.67627 0.66785,-1.02464c1.85636,-2.72771 3.97272,-4.96594 6.7486,-6.78214c0.38644,0 0.77287,0 1.17102,0c0.76712,-1.53424 1.36173,-3.07507 1.9517,-4.68407c-0.41059,0.04025 -0.82118,0.0805 -1.24421,0.12198c-1.48817,-0.12198 -1.48817,-0.12198 -2.63479,-0.95145c-0.96934,-1.35121 -1.02203,-1.83407 -0.80507,-3.46426c0.79898,-1.18474 0.79898,-1.18474 1.85411,-2.36643c0.51625,-0.58645 0.51625,-0.58645 1.04294,-1.18474c0.33209,-0.37386 0.66419,-0.74771 1.00634,-1.1329c2.78503,-3.42161 3.44092,-5.73563 3.12271,-10.14882c-0.11584,-0.65326 -0.24036,-1.30542 -0.39034,-1.9517c-0.38644,0.25762 -0.77287,0.51524 -1.17102,0.78068c-0.38644,0 -0.77287,0 -1.17102,0c-0.12881,0.38644 -0.25762,0.77287 -0.39034,1.17102c-1.66245,0.83122 -2.47596,0.87983 -4.29373,0.78068c-0.38644,-0.12881 -0.77287,-0.25763 -1.17102,-0.39034c-0.76685,-1.53371 -0.52461,-3.39937 -0.39034,-5.07441c0.36583,-1.04977 0.75528,-2.09169 1.17102,-3.12271c0.19875,-1.1741 0.29744,-2.32391 0.39034,-3.51305c-0.41059,0.04025 -0.82118,0.08051 -1.24421,0.12198c-1.48817,-0.12198 -1.48817,-0.12198 -2.63479,-0.90266c-1.03619,-1.50718 -0.95686,-2.50266 -0.80507,-4.29373c-0.33561,0.19724 -0.67123,0.39448 -1.01701,0.5977c-3.24686,1.78454 -5.80989,2.74422 -9.52214,2.13467c-3.45323,-1.15108 -5.67203,-3.8146 -7.31886,-6.97731c-1.41045,-3.05835 -2.41663,-6.15041 -3.2203,-9.41693c-1.42977,-5.43901 -2.90432,-10.85519 -4.58191,-16.22347c-0.53038,-1.86536 -0.91136,-3.73088 -1.27318,-5.63552c-0.08151,-0.35424 -0.16303,-0.70847 -0.24701,-1.07343c-1.28956,-5.89512 -1.14949,-12.7626 2.07673,-18.02879c2.4119,-3.19577 5.14148,-5.41798 9.09978,-6.26982c1.21027,-0.12796 2.42222,-0.24056 3.63503,-0.34155c5.10184,-0.45868 8.86258,-2.47537 13.14955,-5.1232c0.25762,0 0.51525,0 0.78068,0c0,-0.25762 0,-0.51525 0,-0.78068c0.74714,-0.523 0.74714,-0.523 1.80532,-1.14662c2.82475,-1.74555 5.36272,-3.80884 7.95316,-5.87948c7.20366,-5.66806 12.46941,-8.10059 21.85899,-7.41644c7.76692,1.1746 15.22474,4.69889 21.81477,8.88936c0.27222,0.158 0.54443,0.31599 0.8249,0.47878c0.44606,0.26718 0.44606,0.26718 0.90114,0.53976c1.62639,0.37296 2.49443,-0.3348 3.92931,-1.12527c16.61339,-8.75183 39.4869,-10.63271 57.62381,-6.83093c0.65395,0.25159 1.30542,0.50998 1.9517,0.78068c1.16841,0.15174 2.33952,0.28524 3.51305,0.39034c0.30593,-0.51525 0.61186,-1.0305 0.92706,-1.56136c0.33813,-0.51525 0.67626,-1.0305 1.02464,-1.56136c0.25762,0 0.51525,0 0.78068,0c0.12881,-0.51525 0.25762,-1.0305 0.39034,-1.56136c0.55048,-0.83165 1.13127,-1.6436 1.73213,-2.43962c0.31348,-0.42065 0.62695,-0.84131 0.94993,-1.2747c0.27423,-0.32002 0.54846,-0.64004 0.83099,-0.96975c0.25762,0 0.51525,0 0.78068,0c0.12881,-0.51525 0.25762,-1.0305 0.39034,-1.56136c0.63251,-0.66813 1.28548,-1.31716 1.9517,-1.9517c0.57837,-0.68362 1.14761,-1.37504 1.70773,-2.07368c1.47615,-1.8187 2.94717,-3.62241 4.53769,-5.34277c0.25762,0 0.51525,0 0.78068,0c0.25762,-0.51525 0.51525,-1.0305 0.78068,-1.56136c0.25762,0 0.51525,0 0.78068,0c0.12881,-0.38644 0.25762,-0.77287 0.39034,-1.17102c1.01929,-0.93492 2.06444,-1.84183 3.12271,-2.73237c0.53437,-0.45537 1.06874,-0.91074 1.6193,-1.37991c5.30114,-4.42415 5.30114,-4.42415 8.06752,-5.94962c0.90484,-0.50664 1.73566,-1.07745 2.58447,-1.67266c1.91452,-1.29442 3.95445,-2.1943 6.07465,-3.09832c0.43474,-0.20127 0.86948,-0.40254 1.31739,-0.6099c8.53055,-3.38281 19.92914,-5.49208 27.80099,0.616z" fill="#020202"/><path d="M84.45963,48.38127c0,0.25762 0,0.51525 0,0.78068c0.28178,0.0483 0.56355,0.09661 0.85387,0.14638c1.08113,0.24025 2.03349,0.58919 3.04952,1.02464c0,0.25762 0,0.51525 0,0.78068c0.32958,0.09107 0.65915,0.18215 0.99872,0.27598c2.05228,0.77106 3.71496,2.06553 5.50439,3.31483c1.20692,0.78201 1.20692,0.78201 2.32678,0.71054c1.13768,-0.48758 1.93243,-1.16628 2.88028,-1.95932c5.65193,-3.20741 11.54242,-5.30879 17.9556,-6.24543c0.01459,0.5711 0.02919,1.1422 0.04422,1.7306c0.32512,9.79828 2.40395,18.11999 6.03043,27.22768c5.16991,13.01585 8.40211,27.84785 2.90315,41.30276c-2.39406,5.32556 -5.84991,9.44494 -10.53916,12.88119c-1.0332,0.77198 -2.06594,1.54457 -3.09832,2.31764c-0.53638,0.40153 -1.07276,0.80306 -1.6254,1.21676c-9.73904,7.35795 -14.69309,14.21061 -16.74494,26.52171c-0.18988,2.33943 -0.34449,4.682 -0.46353,7.0261c-0.06189,1.17541 -0.12378,2.35082 -0.18755,3.56184c-0.04277,0.88558 -0.08554,1.77116 -0.1296,2.68358c-0.25762,-0.51525 -0.51525,-1.0305 -0.78068,-1.56136c-1.94663,-4.04981 -1.94663,-4.04981 -5.07441,-7.0261c0,-0.25762 0,-0.51525 0,-0.78068c-0.51525,-0.25762 -1.0305,-0.51525 -1.56136,-0.78068c-0.38644,-0.38644 -0.77287,-0.77287 -1.17102,-1.17102c-0.38644,-0.12881 -0.77287,-0.25762 -1.17102,-0.39034c0,-0.25762 0,-0.51525 0,-0.78068c-0.5555,-0.18114 -0.5555,-0.18114 -1.12222,-0.36594c-1.21981,-0.41474 -1.21981,-0.41474 -2.00049,-0.80507c0,-0.25762 0,-0.51525 0,-0.78068c-0.28379,-0.07095 -0.56758,-0.1419 -0.85996,-0.21499c-0.39247,-0.09812 -0.78495,-0.19624 -1.18932,-0.29733c-0.42518,-0.10617 -0.85036,-0.21234 -1.28842,-0.32173c-0.87749,-0.21962 -1.75475,-0.44016 -2.63174,-0.66175c-0.40505,-0.10214 -0.81011,-0.20429 -1.22743,-0.30953c-0.36983,-0.09359 -0.73966,-0.18718 -1.1207,-0.2836c-5.7344,-1.38158 -11.99434,-0.72171 -17.83514,-0.25311c0.08453,-0.28278 0.16907,-0.56557 0.25616,-0.85692c0.82353,-2.8383 0.82353,-2.8383 0.91486,-5.77885c-0.90168,-0.25762 -1.80337,-0.51525 -2.73237,-0.78068c1.08144,-4.32576 4.87523,-7.2352 8.02177,-10.13814c1.4778,-1.72549 1.83818,-2.85891 2.12704,-5.08508c-1.64824,-0.36798 -1.64824,-0.36798 -3.51305,-0.39034c-1.34026,0.89397 -1.34026,0.89397 -2.34203,1.9517c-0.25762,0 -0.51525,0 -0.78068,0c-0.1419,-0.37184 -0.28379,-0.74369 -0.42998,-1.1268c-1.36835,-3.73962 -1.36835,-3.73962 -4.25409,-6.28964c-1.46456,-0.16357 -1.46456,-0.16357 -2.73237,0c0.12076,-0.5716 0.24152,-1.14321 0.36594,-1.73213c0.93167,-3.55919 0.93167,-3.55919 0.0244,-6.85533c-1.1265,-0.22827 -1.1265,-0.22827 -2.39083,-0.26836c-1.13515,-0.06038 -1.13515,-0.06038 -2.29324,-0.12198c0,-1.67455 0,-3.34911 0,-5.07441c0.25762,0 0.51525,0 0.78068,0c0,-0.25762 0,-0.51525 0,-0.78068c0.40103,-0.33461 0.80206,-0.66922 1.21523,-1.01397c1.61844,-1.41675 2.7133,-2.85368 3.93236,-4.62155c0.39197,-0.56305 0.78394,-1.1261 1.18779,-1.70621c0.94438,-1.42923 1.81486,-2.86937 2.64241,-4.36844c0.25762,0 0.51525,0 0.78068,0c0.0322,-0.32203 0.06441,-0.64406 0.09758,-0.97585c0.35714,-1.66664 1.07466,-2.97724 1.85411,-4.4889c0.27677,-0.77497 0.54422,-1.55383 0.78068,-2.34203c0.25762,0 0.51525,0 0.78068,0c0.05635,-0.49915 0.11271,-0.99829 0.17077,-1.51256c0.21957,-1.61015 0.21957,-1.61015 0.6099,-2.39083c0.25762,0 0.51525,0 0.78068,0c0.0483,-0.36229 0.09661,-0.72457 0.14638,-1.09783c0.24396,-1.24421 0.24396,-1.24421 1.02464,-2.41522c0.28045,-0.85409 0.56032,-1.70838 0.83405,-2.56465c0.50778,-1.42914 1.19146,-2.73051 1.89833,-4.07112c0.25762,0 0.51525,0 0.78068,0c0.10063,-0.28328 0.20127,-0.56657 0.30495,-0.85844c0.49619,-1.14028 1.07691,-1.99444 1.84191,-2.97176c0.2375,-0.30845 0.47499,-0.61689 0.71969,-0.93468c0.21334,-0.23096 0.42669,-0.46191 0.6465,-0.69987c0.25762,0 0.51525,0 0.78068,0c0.38644,-0.77287 0.38644,-0.77287 0.78068,-1.56136c0.78068,-0.87826 0.78068,-0.87826 1.56136,-1.56136c0.25762,0 0.51525,0 0.78068,0c0,-0.25762 0,-0.51525 0,-0.78068c3.22412,-2.77065 6.83389,-5.75842 10.92949,-7.0261c0.38644,-0.38644 0.77287,-0.77287 1.17102,-1.17102c0.38644,-0.12881 0.77287,-0.25762 1.17102,-0.39034c0.57705,-1.1541 0.41389,-2.24144 0.39034,-3.51305c-1.30684,-0.65342 -2.46944,-0.49735 -3.90339,-0.39034c-0.97036,0.66523 -0.97036,0.66523 -1.9517,1.56136c-0.5716,0.27373 -1.14321,0.54745 -1.73213,0.82947c-4.71483,2.27613 -9.55561,5.87656 -12.78361,10.02684c-0.23347,0.28178 -0.46694,0.56355 -0.70749,0.85387c-0.25762,0 -0.51525,0 -0.78068,0c-0.38644,0.77287 -0.38644,0.77287 -0.78068,1.56136c-0.12881,0.25762 -0.25762,0.51525 -0.39034,0.78068c-0.25762,0 -0.51525,0 -0.78068,0c-0.10466,0.28983 -0.20932,0.57965 -0.31715,0.87826c-0.46353,1.07343 -0.46353,1.07343 -1.63455,2.63479c-0.2719,0.64577 -0.53124,1.29692 -0.78068,1.9517c-0.38441,0.78361 -0.77347,1.565 -1.17102,2.34203c-0.25762,0 -0.51525,0 -0.78068,0c-0.04176,0.34115 -0.08352,0.6823 -0.12656,1.03379c-0.27305,1.3542 -0.70394,2.29512 -1.36161,3.5039c-1.03081,1.98764 -1.79169,3.95377 -2.46249,6.08685c-0.45052,1.42563 -0.97749,2.81318 -1.51409,4.20834c-0.25762,0 -0.51525,0 -0.78068,0c-0.08856,0.30593 -0.17712,0.61186 -0.26836,0.92706c-0.67104,1.85334 -1.55876,3.57005 -2.46402,5.31837c-0.25762,0 -0.51525,0 -0.78068,0c-0.25762,0.51525 -0.51525,1.0305 -0.78068,1.56136c-0.84151,1.33013 -1.61493,2.39561 -2.73237,3.51305c-0.12881,0.38644 -0.25762,0.77287 -0.39034,1.17102c-0.33008,0.21737 -0.66016,0.43474 -1.00024,0.6587c-1.43753,0.96707 -2.52702,2.05439 -3.73262,3.28739c-1.61918,1.63267 -3.36651,2.81734 -5.41596,3.8607c-0.51525,0 -1.0305,0 -1.56136,0c0,0.25762 0,0.51525 0,0.78068c-1.15931,0 -2.31861,0 -3.51305,0c-0.12881,-0.38644 -0.25762,-0.77287 -0.39034,-1.17102c-0.25762,0 -0.51525,0 -0.78068,0c-2.66209,-3.52947 -3.66764,-7.10011 -4.78165,-11.34423c-0.32404,-1.22019 -0.64808,-2.44038 -0.98194,-3.69755c-0.28782,-1.09037 -0.57563,-2.18074 -0.87217,-3.30416c-0.23146,-0.74822 -0.46292,-1.49643 -0.70139,-2.26732c-0.46962,-1.63607 -0.46962,-1.63607 -0.46962,-3.58777c-0.25762,0 -0.51525,0 -0.78068,0c-0.32097,-1.03159 -0.63717,-2.06467 -0.95145,-3.09832c-0.17661,-0.57513 -0.35323,-1.15025 -0.53519,-1.7428c-0.86903,-3.3536 -0.94708,-6.68429 -1.00177,-10.13814c-0.01912,-0.82419 -0.03824,-1.64839 -0.05794,-2.49756c0.27134,-3.22766 1.23967,-5.63604 3.32703,-8.11478c2.16544,-1.75942 3.99576,-1.84405 6.75775,-2.02488c7.16331,-0.67383 12.49776,-3.76201 18.22396,-7.90437c0.51525,-0.25762 1.0305,-0.51525 1.56136,-0.78068c0.38644,-0.38644 0.77287,-0.77287 1.17102,-1.17102c1.04904,-0.46353 1.04904,-0.46353 1.9517,-0.78068c0,-0.25762 0,-0.51525 0,-0.78068c0.51525,-0.12881 1.0305,-0.25762 1.56136,-0.39034c0,-0.25762 0,-0.51525 0,-0.78068c0.51525,-0.12881 1.0305,-0.25762 1.56136,-0.39034c0,-0.25762 0,-0.51525 0,-0.78068c0.41059,-0.21737 0.82118,-0.43474 1.24421,-0.6587c1.47018,-0.80666 1.47018,-0.80666 2.39083,-1.82971c7.9047,-7.72087 18.8168,-3.39558 27.5921,0.14638z" fill="#3d3d3d"/><path d="M227.39693,7.20049c0.23347,0.19322 0.46694,0.38644 0.70749,0.58551c0,0.25762 0,0.51525 0,0.78068c0.44682,0.15699 0.44682,0.15699 0.90266,0.31715c1.04904,0.46353 1.04904,0.46353 2.22005,1.63455c0,0.51525 0,1.0305 0,1.56136c0.25762,0 0.51525,0 0.78068,0c1.41757,3.68793 1.15163,7.74557 -0.09606,11.45249c-1.57935,5.57272 -0.81531,12.13053 -0.87979,17.82295c-0.2524,22.13905 -0.2524,22.13905 -1.14662,28.88509c-0.09611,0.74872 -0.19221,1.49744 -0.29123,2.26885c-0.27647,1.75666 -0.64096,3.43148 -1.09935,5.1476c-0.08856,0.46694 -0.17712,0.93389 -0.26836,1.41498c-0.76337,2.54456 -2.01222,4.82617 -3.24469,7.17248c-0.12881,0 -0.25762,0 -0.39034,0c0.04576,-0.92721 0.09537,-1.85423 0.14638,-2.78117c0.02717,-0.51625 0.05434,-1.03251 0.08234,-1.5644c0.21024,-2.47131 0.58973,-4.90968 0.9423,-7.3646c0.90248,-8.04107 1.36936,-16.07937 1.74585,-24.15986c0.43257,-8.28939 1.04877,-16.46444 2.54788,-24.63253c0.14974,-1.42932 0.28938,-2.86014 0.39034,-4.29373c0.25762,0 0.51525,0 0.78068,0c-0.03418,-0.99236 -0.07641,-1.98444 -0.12198,-2.97634c-0.03396,-0.82873 -0.03396,-0.82873 -0.06861,-1.67419c-0.19846,-1.58468 -0.59901,-2.55896 -1.37076,-3.93694c0,-0.25762 0,-0.51525 0,-0.78068c-0.77287,-0.38644 -0.77287,-0.38644 -1.56136,-0.78068c-0.36178,-0.2068 -0.72356,-0.41361 -1.0963,-0.62668c-4.49059,-1.96223 -10.93588,-0.29311 -15.29794,1.40736c-1.03697,0.15843 -2.07786,0.29705 -3.12271,0.39034c0,0.25762 0,0.51525 0,0.78068c-0.57965,0.17712 -1.15931,0.35423 -1.75653,0.53672c-2.72402,0.97539 -5.03928,2.51785 -7.45304,4.09094c-1.32959,0.83709 -1.32959,0.83709 -2.50061,1.22743c0,0.25762 0,0.51525 0,0.78068c-0.5598,0.47683 -1.1418,0.92771 -1.73213,1.36619c-3.43368,2.68681 -6.04134,5.92943 -8.41669,9.56331c-0.2229,0.32656 -0.44581,0.65312 -0.67547,0.98957c-1.42603,2.19154 -2.01651,3.80129 -2.0569,6.42687c0.12881,0.38644 0.25762,0.77287 0.39034,1.17102c0.43273,0.02365 0.86546,0.0473 1.3113,0.07166c0.84834,0.04906 0.84834,0.04906 1.71383,0.09911c0.84231,0.04755 0.84231,0.04755 1.70164,0.09606c1.51866,0.12351 1.51866,0.12351 3.08002,0.51385c0,0.38644 0,0.77287 0,1.17102c-1.28812,0.38644 -2.57624,0.77287 -3.90339,1.17102c0,0.25762 0,0.51525 0,0.78068c-0.77266,0.66964 -1.54604,1.3385 -2.32526,2.00049c-1.33914,1.22904 -2.17757,2.53019 -2.74915,4.24494c-0.07552,2.1835 -0.07552,2.1835 0.39034,4.29373c0.48908,-0.00906 0.97817,-0.01812 1.48207,-0.02744c0.63802,-0.00705 1.27604,-0.01409 1.9334,-0.02135c0.95099,-0.01358 0.95099,-0.01358 1.9212,-0.02744c1.68943,0.07624 1.68943,0.07624 3.25079,0.85692c0,0.25762 0,0.51525 0,0.78068c-0.51525,0.12881 -1.0305,0.25762 -1.56136,0.39034c0,0.25762 0,0.51525 0,0.78068c-0.77287,0.25762 -1.54574,0.51525 -2.34203,0.78068c0,0.25762 0,0.51525 0,0.78068c-0.51525,0 -1.0305,0 -1.56136,0c0,0.25762 0,0.51525 0,0.78068c-0.25762,0.12881 -0.51525,0.25762 -0.78068,0.39034c-0.22618,1.48937 -0.22618,1.48937 0,3.12271c1.1596,1.00724 1.1596,1.00724 2.70798,1.70773c3.72775,2.0362 5.94915,4.50586 8.22152,8.05074c0.25762,0.12881 0.51525,0.25762 0.78068,0.39034c0.34284,0.65399 0.65558,1.32395 0.95145,2.00049c0.17007,0.38744 0.34015,0.77489 0.51537,1.17407c0.16001,0.36933 0.32002,0.73866 0.48488,1.11918c0.23347,0.51525 0.46694,1.0305 0.70749,1.56136c0.46353,1.17102 0.46353,1.17102 0.46353,2.34203c0.25762,0 0.51525,0 0.78068,0c1.11201,2.89917 1.97009,5.76748 2.68358,8.79025c0.72621,2.24671 1.67693,3.45793 3.56184,4.87162c0,0.25762 0,0.51525 0,0.78068c3.66224,1.10857 7.33447,1.83211 11.10027,0.80507c1.91792,-1.54369 3.13858,-3.50332 3.73262,-5.87948c0.38644,0.12881 0.77287,0.25762 1.17102,0.39034c0,0.38644 0,0.77287 0,1.17102c0.25762,0 0.51525,0 0.78068,0c1.5701,1.43926 2.93842,3.04509 4.29373,4.68407c0,0.12881 0,0.25762 0,0.39034c-1.80337,-0.12881 -3.60673,-0.25762 -5.46475,-0.39034c0,0.25762 0,0.51525 0,0.78068c-0.38644,0 -0.77287,0 -1.17102,0c-0.1682,1.95109 -0.213,2.83516 0.97585,4.44011c0.32203,0.33813 0.64406,0.67626 0.97585,1.02464c0,0.25762 0,0.51525 0,0.78068c0.25762,0 0.51525,0 0.78068,0c0.77305,0.89808 0.77305,0.89808 1.63455,2.07368c0.28731,0.38493 0.57462,0.76985 0.87064,1.16644c0.20378,0.34769 0.40757,0.69539 0.61753,1.05361c-0.12881,0.38644 -0.25762,0.77287 -0.39034,1.17102c-1.78092,0.46353 -1.78092,0.46353 -3.51305,0.78068c0,0.25762 0,0.51525 0,0.78068c-0.31398,0.08051 -0.62796,0.16101 -0.95145,0.24396c-0.49512,0.26568 -0.49512,0.26568 -1.00024,0.53672c-0.41783,1.40271 -0.46491,2.11831 0,3.51305c0.51525,0.25762 1.0305,0.51525 1.56136,0.78068c-3.51305,2.34203 -3.51305,2.34203 -5.07441,2.34203c0,0.25762 0,0.51525 0,0.78068c-0.51525,0.12881 -1.0305,0.25762 -1.56136,0.39034c-0.12881,0.38644 -0.25762,0.77287 -0.39034,1.17102c-1.18784,0.8813 -2.42698,1.3408 -3.80581,1.82971c-2.94693,1.16291 -5.03336,2.85171 -6.34301,5.7575c-0.43442,1.77233 -0.43442,1.77233 -0.51232,3.58624c-0.33359,2.12286 -1.15623,2.89869 -2.61039,4.44011c-1.43174,2.86349 -1.30086,4.76322 -1.2686,7.95316c0.00906,1.48989 0.00906,1.48989 0.0183,3.00988c0.05848,1.99079 0.19415,3.85768 0.46962,5.82154c0.01532,0.76426 0.01732,1.52902 0,2.29324c-0.06548,1.44822 -0.06548,1.44822 0.39034,2.78117c0.09113,1.31627 0.16117,2.63405 0.21957,3.95218c0.03271,0.71752 0.06541,1.43505 0.09911,2.17431c0.02365,0.5545 0.0473,1.10899 0.07166,1.68029c0.12881,0 0.25762,0 0.39034,0c-0.01271,0.96568 -0.02541,1.93137 -0.03812,2.89705c0.00756,1.11155 0.00756,1.11155 0.42846,2.5677c-0.03446,1.00939 -0.09496,2.01799 -0.17077,3.02513c-0.15412,2.29228 -0.23947,4.558 -0.21957,6.85533c0.04431,6.38085 0.04431,6.38085 -0.78068,8.85582c-6.31178,0.12881 -12.62357,0.25762 -19.12662,0.39034c0.90168,-2.1898 1.80337,-4.3796 2.73237,-6.63576c1.43801,-5.18441 2.01131,-9.67547 2.02488,-15.07685c0.00554,-0.99527 0.01107,-1.99055 0.01677,-3.01598c-0.32791,-10.8821 -4.41156,-19.84436 -12.24536,-27.37406c-5.52054,-4.86441 -11.82145,-8.64283 -18.33984,-12.01055c-7.27667,-3.82734 -12.04071,-9.95864 -14.7353,-17.71164c-3.84888,-12.5686 -2.82325,-25.44503 0.28666,-38.06264c1.93888,-8.2668 1.85229,-17.0378 0.05489,-25.31867c14.64405,1.04513 14.64405,1.04513 17.17492,2.73237c0.25762,0.51525 0.51525,1.0305 0.78068,1.56136c1.23105,0.36125 1.23105,0.36125 2.73237,0c1.50468,-1.59506 2.81657,-3.37529 3.51305,-5.46475c0.25762,0 0.51525,0 0.78068,0c0.10466,-0.28983 0.20932,-0.57965 0.31715,-0.87826c0.46353,-1.07343 0.46353,-1.07343 1.63455,-2.63479c0.25762,0 0.51525,0 0.78068,0c0.14491,-0.51474 0.14491,-0.51474 0.29275,-1.03989c0.51461,-1.37337 1.12507,-2.26874 2.04928,-3.40022c0.27373,-0.34115 0.54745,-0.6823 0.82947,-1.03379c0.24152,-0.2546 0.48304,-0.50921 0.73189,-0.77153c0.25762,0 0.51525,0 0.78068,0c0.07548,-0.26316 0.15095,-0.52632 0.22872,-0.79745c2.56792,-5.36994 9.47967,-11.26549 14.21383,-14.81611c0.25762,0 0.51525,0 0.78068,0c0,-0.25762 0,-0.51525 0,-0.78068c1.56136,-1.17102 1.56136,-1.17102 2.34203,-1.17102c0,-0.25762 0,-0.51525 0,-0.78068c1.10222,-0.73828 2.22934,-1.43953 3.36667,-2.12247c0.93741,-0.56682 0.93741,-0.56682 1.89375,-1.14509c3.78059,-2.19718 3.78059,-2.19718 4.88839,-2.19718c0,-0.25762 0,-0.51525 0,-0.78068c1.2186,-0.44248 2.43871,-0.88079 3.65943,-1.31739c0.67928,-0.24454 1.35856,-0.48908 2.05843,-0.74104c5.47521,-1.76645 12.37073,-2.63194 17.77568,-0.08844z" fill="#3c3c3c"/><path d="M143.79117,44.47787c0.1899,0.64974 0.3762,1.30052 0.56111,1.9517c0.10416,0.36229 0.20831,0.72457 0.31562,1.09783c2.27996,9.63959 0.20009,19.8685 -1.99286,29.30745c-2.96182,13.25719 -1.84242,27.6037 5.01952,39.46542c3.5644,5.31138 8.28974,8.09661 13.82197,11.07587c11.36416,6.18984 21.97917,14.40425 26.1024,27.16364c2.95309,10.55731 2.45369,22.76727 -2.06148,32.80221c-0.51525,0.90168 -1.0305,1.80337 -1.56136,2.73237c-18.54891,0 -37.09783,0 -56.20883,0c0.39034,-1.56136 0.39034,-1.56136 1.14509,-2.10265c0.32253,-0.16756 0.64507,-0.33511 0.97737,-0.50775c2.96968,-1.68424 5.35959,-3.91951 7.56282,-6.51378c1.69032,-1.92232 2.65862,-2.63585 5.19639,-2.82996c2.72833,0.0769 4.45699,1.38965 6.58697,2.97634c4.62726,3.30911 9.31516,6.04723 15.22323,5.46475c4.20674,-1.06981 7.14952,-3.11623 9.52519,-6.72573c1.89818,-3.29048 3.95225,-7.62915 3.62436,-11.49823c-0.08856,-0.29788 -0.17712,-0.59576 -0.26836,-0.90266c-0.90168,-0.12881 -1.80337,-0.25762 -2.73237,-0.39034c-0.79817,1.71607 -1.39438,3.43366 -1.9273,5.24518c-1.07958,3.5565 -2.46427,7.01652 -5.75445,9.06929c-1.57604,0.63041 -2.821,0.68765 -4.51634,0.68919c-0.82419,0.01132 -0.82419,0.01132 -1.66504,0.02287c-4.44154,-0.49135 -7.46292,-2.98424 -10.899,-5.6218c-1.76264,-1.29489 -1.76264,-1.29489 -3.92779,-2.02488c-0.57965,-0.24555 -1.15931,-0.4911 -1.75653,-0.74408c-0.30564,-1.52817 -0.43314,-2.69292 -0.41474,-4.22054c0.00352,-0.3809 0.00705,-0.7618 0.01067,-1.15424c0.00453,-0.28731 0.00906,-0.57462 0.01372,-0.87064c0.54745,-0.18517 1.0949,-0.37033 1.65894,-0.56111c5.91579,-2.39309 9.8499,-7.03911 12.35667,-12.76988c1.09582,-2.85305 1.35961,-6.17739 0.35374,-9.08911c-2.92133,-4.13015 -6.90234,-6.10994 -11.84283,-7.07642c-7.43504,-0.92833 -15.07944,0.28334 -21.27501,4.67187c-2.59551,2.10627 -4.08116,4.41026 -4.4767,7.72292c0.52969,5.09826 3.4911,9.42417 7.29446,12.73481c3.2437,2.51038 6.8217,4.07343 10.85631,4.75726c0.74088,2.17635 1.21181,3.9666 0.78068,6.24543c-1.05138,0.9869 -2.17344,1.75016 -3.37125,2.55245c-1.37943,1.00935 -2.3937,2.08402 -3.50848,3.37582c-3.01647,3.40654 -6.46991,5.39528 -11.05148,5.97707c-3.34457,-0.41164 -5.74624,-2.02476 -7.87692,-4.59106c-1.14537,-1.66578 -2.00979,-3.44281 -2.86503,-5.2711c-0.53868,-1.12918 -1.05064,-2.19265 -1.7733,-3.2142c-1.18772,-0.26028 -1.18772,-0.26028 -2.34203,0c-0.87559,1.05626 -0.87559,1.05626 -0.72426,2.02946c1.7404,5.69801 5.13769,10.6713 10.0924,13.97444c0,0.38644 0,0.77287 0,1.17102c-5.92535,0 -11.8507,0 -17.9556,0c-5.27763,-12.66631 -5.47429,-27.68772 -0.90266,-40.69285c3.32673,-7.54569 10.0473,-12.72794 16.51622,-17.46768c7.68426,-5.71174 13.38383,-11.9151 15.0738,-21.69127c1.92555,-13.4789 -1.67503,-25.67216 -6.63119,-38.07941c-3.2245,-8.43257 -4.46586,-15.93211 -4.14888,-24.93291c0.12881,-0.25762 0.25762,-0.51525 0.39034,-0.78068c3.5328,-0.94331 7.30326,-0.90958 10.93102,-1.05971c1.74529,-0.09961 3.44045,-0.28279 5.17047,-0.52604c3.09895,-0.42689 6.1474,-0.4407 9.27055,-0.36594z" fill="#fdfdfd"/><path d="M231.50159,121.42042c0.4921,0.26718 0.4921,0.26718 0.99415,0.53976c1.94756,1.02955 3.44371,1.05189 5.63552,0.97585c2.8805,-0.08427 4.20737,0.0362 6.36741,1.9517c2.34203,2.36744 2.34203,2.36744 2.34203,3.51305c0.53135,0.12881 1.06269,0.25762 1.61015,0.39034c2.10784,0.71475 3.20598,1.97118 4.24494,3.90339c1.90263,4.30532 2.06621,8.48198 2.29324,13.17394c0.5403,9.89371 1.8867,19.50774 3.42004,29.29373c0.73588,4.96774 1.31282,9.88847 1.31282,14.91217c-16.61674,0 -33.23347,0 -50.35374,0c0,-2.2049 0.09813,-4.0497 0.39034,-6.19663c1.10272,-10.5732 0.08127,-20.65997 -1.42413,-31.14784c-1.48163,-11.32206 -1.48163,-11.32206 0.21651,-14.32514c0.2697,-0.33863 0.5394,-0.67727 0.81728,-1.02617c1.41779,-2.08498 1.80577,-3.79626 2.03556,-6.25915c0.42013,-1.58647 1.0835,-2.35751 2.25817,-3.49933c1.48817,-0.7578 1.48817,-0.7578 3.12271,-1.39058c2.15357,-0.83772 3.52274,-1.57892 5.07441,-3.29349c2.84758,-2.05026 6.24737,-2.91884 9.64259,-1.51561z" fill="#fdfdfd"/><path d="M224.9817,14.8121c0.99504,1.13258 1.16513,1.83489 1.24116,3.3438c-0.25344,3.32389 -0.77578,6.31991 -1.6315,9.53739c-0.85368,4.96928 -1.08624,9.94926 -1.36619,14.97926c-0.36218,6.46815 -0.81465,12.91591 -1.36619,19.37058c-0.29442,4.04837 -0.58192,8.09715 -0.86606,12.14626c-0.22445,2.55196 -0.50124,4.8904 -1.08563,7.3707c-0.17963,0.85288 -0.17963,0.85288 -0.36289,1.72298c-0.6461,2.87807 -1.24369,5.49057 -2.75982,8.0355c-0.80482,0.03182 -1.61,0.05442 -2.41522,0.07319c-0.44832,0.01358 -0.89665,0.02717 -1.35856,0.04117c-1.30062,-0.11436 -1.30062,-0.11436 -3.25232,-1.28537c-0.69323,-1.82185 -1.30765,-3.67411 -1.87851,-5.53794c-1.86113,-5.81291 -3.96094,-10.95847 -7.48963,-15.93071c-0.25762,-0.40254 -0.51525,-0.80507 -0.78068,-1.21981c-1.67993,-2.4149 -3.59523,-4.34355 -5.85509,-6.19663c0.48984,-1.46951 0.94582,-1.59819 2.26885,-2.34203c1.28387,-0.72822 2.39589,-1.44927 3.58624,-2.34203c0.35829,-1.31557 0.35829,-1.31557 0,-2.73237c-2.4785,-2.69402 -5.83637,-4.22986 -9.36814,-5.07441c0.96756,-1.93512 1.53235,-1.9976 3.51305,-2.73237c0.5072,-0.21737 1.01439,-0.43474 1.53696,-0.6587c1.66395,-0.53758 2.97199,-0.60535 4.70847,-0.51232c0.85625,-1.7125 1.06686,-2.41766 0.78068,-4.29373c-2.61588,-3.2281 -5.71505,-4.75875 -9.75848,-5.46475c0,-3.17103 2.97592,-5.97757 5.07441,-8.19712c0.25762,0 0.51525,0 0.78068,0c0.12881,-0.38644 0.25762,-0.77287 0.39034,-1.17102c2.75145,-2.41115 5.76913,-4.49381 8.9778,-6.24543c0.30694,-0.17158 0.61387,-0.34316 0.9301,-0.51994c5.17644,-2.75467 11.92538,-4.77512 17.80617,-4.16413z" fill="#7e7e7e"/><path d="M79.38522,163.5313c0.31146,0.1595 0.62293,0.31901 0.94383,0.48335c4.07516,2.24292 7.1495,5.5031 9.20499,9.66547c0.16101,0.30995 0.32203,0.61991 0.48792,0.93925c1.61142,3.6257 1.71707,8.1172 0.7883,11.94651c-1.25091,3.00729 -3.14777,4.91294 -6.04568,6.27897c-1.82872,0.5933 -3.47139,0.47452 -5.37936,0.35222c0.35616,-2.26613 0.85664,-4.49381 1.35704,-6.73182c0.21172,-1.51836 0.12776,-2.7025 -0.18602,-4.19767c-0.12881,-0.12881 -0.25762,-0.25762 -0.39034,-0.39034c-0.64406,0 -1.28812,0 -1.9517,0c-0.84348,1.26521 -0.87222,1.68124 -0.92706,3.14711c-0.24637,3.1042 -0.96685,5.36759 -3.17151,7.61161c-2.28181,1.58912 -4.53611,1.5084 -7.22127,1.34179c-1.43938,-0.39034 -1.43938,-0.39034 -2.34203,-0.78068c0.34623,-3.31389 0.34623,-3.31389 0.59466,-4.43553c0.2288,-1.26592 0.25228,-2.47547 0.25921,-3.76159c0.00554,-0.46694 0.01107,-0.93389 0.01677,-1.41498c-0.08761,-1.28293 -0.2623,-2.14169 -0.87064,-3.26909c-0.95454,-0.41873 -0.95454,-0.41873 -1.9517,-0.39034c-1.58253,1.58253 -0.92764,4.77092 -0.9606,6.90717c-0.25,2.46014 -0.74667,4.30103 -2.65461,5.96182c-2.5417,0.95722 -5.75641,0.85749 -8.34807,0.10063c-2.23558,-1.20772 -3.20944,-3.26575 -4.04062,-5.55318c-0.31779,-1.16813 -0.55386,-2.32226 -0.78068,-3.51305c-0.46226,-0.55263 -0.46226,-0.55263 -1.78092,-0.41474c-0.66419,0.01208 -0.66419,0.01208 -1.34179,0.0244c-0.08742,2.09805 0.24975,3.83094 0.78068,5.85509c0,0.51525 0,1.0305 0,1.56136c-2.06099,0 -4.12198,0 -6.24543,0c-0.19756,-8.22428 2.13278,-17.6388 7.92876,-23.76189c8.60145,-8.04839 24.04747,-8.80175 34.22786,-3.56184z" fill="#fcfcfc"/><path d="M106.31862,110.44518c0,0.25762 0,0.51525 0,0.78068c0.25762,0 0.51525,0 0.78068,0c0.19322,0.77287 0.19322,0.77287 0.39034,1.56136c0.38644,0.12881 0.77287,0.25762 1.17102,0.39034c1.28358,2.51779 1.61803,4.83855 1.63455,7.63601c0.00554,0.42719 0.01107,0.85439 0.01677,1.29452c-0.08995,1.21805 -0.35325,2.0718 -0.87064,3.16998c-0.25762,0 -0.51525,0 -0.78068,0c-0.08051,0.34618 -0.16101,0.69236 -0.24396,1.04904c-0.6745,1.62492 -1.46874,2.20713 -2.87875,3.24469c-0.71249,0.53135 -0.71249,0.53135 -1.43938,1.07343c-2.55553,1.73583 -5.31954,1.54639 -8.3191,1.2686c-1.53154,-0.49832 -2.90337,-1.14234 -4.29373,-1.9517c0,-0.25762 0,-0.51525 0,-0.78068c-0.51525,-0.25762 -1.0305,-0.51525 -1.56136,-0.78068c-1.86545,-2.08695 -3.51305,-4.13419 -3.51305,-7.0261c-0.0322,-0.4911 -0.06441,-0.98219 -0.09758,-1.48817c0.22095,-3.70087 1.41416,-6.49193 4.07416,-9.09978c5.16453,-3.89457 10.37536,-3.31763 15.93071,-0.34155z" fill="#020202"/><path d="M183.23982,103.49227c0.37839,0.23347 0.75677,0.46694 1.14662,0.70749c0,0.25762 0,0.51525 0,0.78068c0.25762,0 0.51525,0 0.78068,0c0.26568,0.56758 0.26568,0.56758 0.53672,1.14662c0.50075,1.22305 0.50075,1.22305 1.41498,1.58575c1.43244,3.35918 1.27713,7.93542 0,11.31983c-0.75628,0.90266 -0.75628,0.90266 -1.56136,1.56136c-0.38644,0.38644 -0.77287,0.77287 -1.17102,1.17102c-0.25762,0 -0.51525,0 -0.78068,0c-0.25762,0.51525 -0.51525,1.0305 -0.78068,1.56136c-2.59477,1.94608 -5.39864,2.25125 -8.58746,1.9517c-3.05112,-0.50852 -4.86945,-1.7068 -7.0261,-3.90339c0,-0.25762 0,-0.51525 0,-0.78068c-0.38644,-0.12881 -0.77287,-0.25762 -1.17102,-0.39034c-1.90026,-3.09471 -1.92848,-6.1977 -1.56136,-9.75848c0.45938,-1.67891 1.17378,-3.12825 1.9517,-4.68407c0.25762,0 0.51525,0 0.78068,0c0.25762,-0.51525 0.51525,-1.0305 0.78068,-1.56136c0.25762,0 0.51525,0 0.78068,0c0,-0.25762 0,-0.51525 0,-0.78068c5.06153,-2.61512 9.37947,-2.66622 14.46694,0.07319z" fill="#020202"/><path d="M175.79898,55.40737c1.4104,0.82642 1.4104,0.82642 2.85435,1.9029c0.48153,0.35323 0.96307,0.70645 1.4592,1.07038c1.1512,0.9301 1.1512,0.9301 1.54154,1.71078c0.38644,0.12881 0.77287,0.25762 1.17102,0.39034c0.66703,0.63368 1.31719,1.28546 1.9517,1.9517c0.38644,0.38644 0.77287,0.77287 1.17102,1.17102c0.19322,0.57965 0.19322,0.57965 0.39034,1.17102c0.26568,0.26568 0.53135,0.53135 0.80507,0.80507c0.37436,0.37436 0.37436,0.37436 0.75628,0.75628c0,0.25762 0,0.51525 0,0.78068c0.25762,0 0.51525,0 0.78068,0c3.77117,4.86283 5.40837,10.42678 7.03983,16.26464c2.02907,7.00729 5.37329,13.42761 9.74475,19.25622c0,0.25762 0,0.51525 0,0.78068c0.25762,0 0.51525,0 0.78068,0c1.17102,1.56136 1.17102,1.56136 1.17102,2.34203c0.25762,0 0.51525,0 0.78068,0c0.24152,0.44279 0.48304,0.88558 0.73189,1.34179c0.66262,1.39483 0.66262,1.39483 1.61015,1.78092c0.07319,1.48817 0.07319,1.48817 0,3.12271c-1.17102,1.17102 -1.17102,1.17102 -2.48841,1.41498c-1.41498,-0.24396 -1.41498,-0.24396 -2.46402,-1.51256c-0.29788,-0.48304 -0.59576,-0.96609 -0.90266,-1.46377c-0.26567,-0.26567 -0.53135,-0.53135 -0.80507,-0.80507c-0.94302,-0.94302 -1.59342,-1.97907 -2.31764,-3.09832c-0.93519,-1.36682 -1.81494,-2.5988 -3.00073,-3.75701c-0.94808,-0.97371 -1.23285,-1.61739 -1.68334,-2.87875c-0.26567,-0.45889 -0.53135,-0.91778 -0.80507,-1.39058c-0.75628,-1.34179 -0.75628,-1.34179 -1.14662,-2.90315c-0.25762,0 -0.51525,0 -0.78068,0c-0.37285,-0.93212 -0.74513,-1.86447 -1.1146,-2.79794c-0.27497,-0.68039 -0.55877,-1.35738 -0.85692,-2.02793c-1.34848,-3.09785 -2.32221,-6.6124 -2.32221,-10.00701c-0.25762,0 -0.51525,0 -0.78068,0c-0.19322,-0.90571 -0.19322,-0.90571 -0.39034,-1.82971c-0.76972,-2.84064 -2.27351,-5.11597 -3.90339,-7.53842c-0.53135,-0.79703 -0.53135,-0.79703 -1.07343,-1.61015c-0.88873,-1.23588 -0.88873,-1.23588 -2.43962,-2.29324c0,-0.25762 0,-0.51525 0,-0.78068c-0.25762,0 -0.51525,0 -0.78068,0c0,-0.25762 0,-0.51525 0,-0.78068c-0.51525,-0.25762 -1.0305,-0.51525 -1.56136,-0.78068c-0.65158,-0.66435 -1.30254,-1.32934 -1.94712,-2.00049c-0.8436,-0.78627 -1.71593,-1.38222 -2.68816,-2.00049c-1.61015,-1.07343 -1.61015,-1.07343 -2.00049,-2.24445c-0.09758,-1.39058 -0.09758,-1.39058 0,-2.73237c1.39393,-0.92928 1.86848,-0.99681 3.51305,-0.78068z" fill="#030303"/><path d="M90.70505,61.26246c0.92706,0.6343 0.92706,0.6343 1.56136,1.56136c0.16468,1.09783 0.16468,1.09783 0,2.34203c-0.85692,1.05819 -0.85692,1.05819 -2.00049,2.09807c-2.69989,2.56125 -4.6263,5.05883 -6.19663,8.44108c-0.25762,0 -0.51525,0 -0.78068,0c-0.04478,0.28379 -0.08956,0.56758 -0.13571,0.85996c-0.26197,1.12317 -0.65165,1.93897 -1.20609,2.94584c-0.95806,1.84412 -1.41874,3.52095 -1.78092,5.56233c-0.25762,0 -0.51525,0 -0.78068,0c0.01057,0.54946 0.02113,1.09893 0.03202,1.66504c-0.09743,6.81089 -1.08469,13.96214 -3.55269,20.3449c-0.39521,1.05338 -0.72484,2.11191 -1.04141,3.19133c-0.51232,1.73213 -0.51232,1.73213 -0.90266,2.51281c-0.25762,0 -0.51525,0 -0.78068,0c-0.16906,0.5233 -0.33813,1.0466 -0.51232,1.58575c-0.52917,1.59254 -1.14475,3.12665 -1.82971,4.65967c-0.25762,0 -0.51525,0 -0.78068,0c-0.19322,0.77287 -0.19322,0.77287 -0.39034,1.56136c-0.25253,0.65359 -0.51118,1.30492 -0.78068,1.9517c-0.25762,0 -0.51525,0 -0.78068,0c0,0.25762 0,0.51525 0,0.78068c-1.16638,0.16662 -2.33868,0.29512 -3.51305,0.39034c-0.78068,-0.78068 -0.78068,-0.78068 -0.87826,-2.29324c0.09758,-1.61015 0.09758,-1.61015 0.87826,-3.17151c0.25762,0 0.51525,0 0.78068,0c0.25762,-1.0305 0.51525,-2.06099 0.78068,-3.12271c0.25762,0 0.51525,0 0.78068,0c0.19322,-0.77287 0.19322,-0.77287 0.39034,-1.56136c0.19322,-0.77287 0.19322,-0.77287 0.39034,-1.56136c0.25762,0 0.51525,0 0.78068,0c0.09661,-0.41864 0.19322,-0.83728 0.29275,-1.2686c0.58331,-2.2166 1.30529,-4.37123 2.04928,-6.53818c0.25762,0 0.51525,0 0.78068,0c0.0322,-0.49915 0.06441,-0.99829 0.09758,-1.51256c0.1862,-1.94691 0.61159,-3.78506 1.07343,-5.68431c0.72952,-3.13954 0.93151,-6.11749 1.03531,-9.33002c0.20764,-2.7833 0.90574,-5.39606 1.69706,-8.06447c0.25762,0 0.51525,0 0.78068,0c0.07246,-0.41059 0.07246,-0.41059 0.14638,-0.82947c0.25894,-1.19114 0.62342,-2.31409 1.02464,-3.46426c0.25762,0 0.51525,0 0.78068,0c0.03271,-0.26718 0.06541,-0.53437 0.09911,-0.80965c0.37082,-1.45415 1.03785,-2.52782 1.82819,-3.80123c0.41587,-0.68004 0.41587,-0.68004 0.84014,-1.37381c0.24605,-0.34367 0.4921,-0.68733 0.74561,-1.04141c0.25762,0 0.51525,0 0.78068,0c0.25762,-0.51525 0.51525,-1.0305 0.78068,-1.56136c4.22629,-6.08891 4.22629,-6.08891 7.41644,-5.46475z" fill="#030303"/><path d="M242.54696,146.35638c1.74947,1.58556 2.62679,2.9984 2.90315,5.36716c-0.17113,1.66244 -0.45202,2.52754 -1.6132,3.73871c-4.1754,3.02894 -9.02125,3.44596 -14.00037,3.50695c-0.78142,0.01459 -1.56285,0.02919 -2.36796,0.04422c-2.47009,-0.19581 -3.56189,-0.76602 -5.19486,-2.55703c-0.82905,-2.24331 -0.31359,-4.34313 0.58551,-6.46499c4.6251,-6.2854 13.13916,-8.18624 19.68773,-3.63503z" fill="#f98f91"/><path d="M230.44645,21.44787c0.25762,0 0.51525,0 0.78068,0c0.25762,0.25762 0.51525,0.51525 0.78068,0.78068c-0.12198,1.02464 -0.12198,1.02464 -0.39034,2.34203c-0.69541,5.56327 -0.52207,11.18393 -0.58551,16.78458c-0.2524,22.13905 -0.2524,22.13905 -1.14662,28.88509c-0.09611,0.74872 -0.19221,1.49744 -0.29123,2.26885c-0.27647,1.75666 -0.64096,3.43148 -1.09935,5.1476c-0.08856,0.46694 -0.17712,0.93389 -0.26836,1.41498c-0.76337,2.54456 -2.01222,4.82617 -3.24469,7.17248c-0.12881,0 -0.25762,0 -0.39034,0c0.04576,-0.92721 0.09537,-1.85423 0.14638,-2.78117c0.02717,-0.51625 0.05434,-1.03251 0.08234,-1.5644c0.21024,-2.47131 0.58973,-4.90968 0.9423,-7.3646c0.90248,-8.04107 1.36936,-16.07937 1.74585,-24.15986c0.43257,-8.28939 1.04877,-16.46444 2.54788,-24.63253c0.14974,-1.42932 0.28938,-2.86014 0.39034,-4.29373z" fill="#3a3a3a"/><path d="M245.81605,133.49959c1.77656,0.63449 2.73516,1.95587 3.75701,3.48866c0.17947,3.54446 0.17947,3.54446 -0.78068,5.46475c-1.56136,0.78068 -1.56136,0.78068 -2.51281,0.75628c-1.94531,-0.7117 -2.83269,-2.07915 -3.73262,-3.87899c-0.16427,-2.0698 -0.14201,-3.42097 1.17102,-5.07441c1.17102,-0.78068 1.17102,-0.78068 2.09807,-0.75628z" fill="#f48f90"/><path d="M221.05392,130.52325c1.92078,0.3528 2.78306,1.25912 3.87899,2.82996c0.60314,1.77592 0.45905,2.9855 0.04879,4.80605c-0.85387,1.21981 -0.85387,1.21981 -1.9517,1.9517c-1.17102,0.07319 -1.17102,0.07319 -2.34203,-0.39034c-1.68945,-1.72699 -2.29165,-2.8077 -2.46402,-5.22079c0.12198,-1.80532 0.12198,-1.80532 0.75628,-3.00073c0.92706,-0.75628 0.92706,-0.75628 2.07368,-0.97585z" fill="#f48e8f"/><path d="M234.95975,127.15658c2.14252,0.74015 2.69984,2.00861 3.68383,3.97658c0.18566,2.00514 0.04215,3.43076 -1.17102,5.07441c-1.293,0.46353 -1.293,0.46353 -2.73237,0.39034c-1.63567,-1.0493 -2.67765,-1.98963 -3.12271,-3.90339c-0.21201,-1.9081 -0.16448,-2.8386 0.80507,-4.5133c1.14662,-0.95145 1.14662,-0.95145 2.5372,-1.02464z" fill="#f48e8e"/><path d="M214.7841,141.37956c1.82048,0.43691 2.47482,1.55891 3.56184,3.02513c0.64582,1.29164 0.47504,2.48468 0.39034,3.90339c-0.63893,1.39957 -1.04991,1.87095 -2.34203,2.73237c-1.37895,-0.03629 -1.92251,-0.36658 -3.00073,-1.24421c-1.32224,-1.60813 -1.70752,-2.75056 -1.63455,-4.83045c0.48766,-1.91581 1.03974,-3.06832 3.02513,-3.58624z" fill="#f58e8e"/><path d="M104.36692,111.6162c1.17102,1.17102 1.17102,1.17102 1.31739,2.51281c-0.14638,1.39058 -0.14638,1.39058 -1.31739,2.95194c-1.54283,0.22441 -2.37303,0.23956 -3.68383,-0.6343c-0.79399,-1.20687 -0.84647,-1.84969 -0.6099,-3.26909c1.15024,-1.74836 2.28907,-1.81649 4.29373,-1.56136z" fill="#e7e7e7"/><path d="M180.89778,105.02923c1.14662,0.34155 1.14662,0.34155 2.31764,1.51256c0.24548,1.92295 0.04871,2.27709 -1.17102,3.90339c-1.36619,0.17077 -1.36619,0.17077 -2.73237,0c-1.17102,-1.17102 -1.17102,-1.17102 -1.34179,-2.73237c0.05636,-0.51525 0.11271,-1.0305 0.17077,-1.56136c1.56136,-1.17102 1.56136,-1.17102 2.75677,-1.12222z" fill="#f1f1f1"/><path d="M230.44645,21.44787c0.25762,0 0.51525,0 0.78068,0c0.25762,0.25762 0.51525,0.51525 0.78068,0.78068c-0.12198,1.02464 -0.12198,1.02464 -0.39034,2.34203c-0.71918,5.75341 -0.53853,11.57878 -0.6099,17.37009c-0.03271,2.58026 -0.06541,5.16053 -0.09911,7.81898c-0.02365,1.99256 -0.0473,3.98512 -0.07166,6.03806c-0.12881,0 -0.25762,0 -0.39034,0c-0.12881,-8.6304 -0.25762,-17.2608 -0.39034,-26.15272c-0.12881,0 -0.25762,0 -0.39034,0c0.05635,-0.5555 0.11271,-1.111 0.17077,-1.68334c0.21732,-2.17006 0.41497,-4.34161 0.6099,-6.51378z" fill="#242424"/></g></svg>