<svg id="svg" version="1.1" viewBox="0 0 300 200.32885864659107" width="300" height="200.32885864659107" xmlns="http://www.w3.org/2000/svg"><g xmlns="http://www.w3.org/2000/svg" fill="none" fill-rule="nonzero" stroke="none" stroke-width="1" stroke-linecap="butt" stroke-linejoin="miter" stroke-miterlimit="10" stroke-dasharray="" stroke-dashoffset="0" font-family="none" font-weight="none" font-size="none" text-anchor="none" style="mix-blend-mode: normal"><path d="M0.38535,32.21663c1.93429,0.91936 3.71859,2.00431 5.52808,3.14844c2.54233,1.60015 5.09118,3.18799 7.65145,4.75927c3.06201,1.88108 6.11245,3.77979 9.15817,5.6871c1.58179,0.98875 3.16681,1.97202 4.75355,2.95281c2.17044,1.34158 4.33568,2.69113 6.49824,4.04538c3.10211,1.94106 6.21748,3.85984 9.3355,5.7752c2.38079,1.46777 4.751,2.95206 7.12061,4.43779c2.57611,1.60514 5.16829,3.18385 7.76128,4.76157c1.37313,0.8687 2.69059,1.8246 3.99047,2.79951c32.18625,0.03247 64.3692,-0.16019 96.55493,-0.33864c13.52966,0.16763 13.52966,0.16763 27.33265,0.33864c1.85847,2.36532 3.70984,4.72589 5.52808,7.12061c1.44888,1.90628 2.89988,3.81081 4.35657,5.71113c1.79764,2.34957 3.57299,4.71505 5.34503,7.084c1.1598,1.5464 2.3196,3.0928 3.51454,4.68606c0.2578,17.61979 0.2937,35.24304 0.21966,52.86456c-0.04757,14.5745 -0.04757,14.5745 -0.0961,29.44344c-0.04077,7.53567 -0.08155,15.07134 -0.12356,22.83537c-7.82864,0 -15.65728,0 -23.72315,0c-2.1017,-9.00731 -4.13007,-18.02875 -6.15045,-27.05465c-0.71884,-3.20983 -1.43767,-6.41967 -2.17828,-9.72677c-3.97216,-17.80381 -3.97216,-17.80381 -3.97216,-19.15837c-9.2254,-0.0931 -18.45121,-0.14665 -27.67701,-0.18305c-7.70632,-0.05097 -7.70632,-0.05097 -15.56832,-0.10296c-13.64744,-0.25904 -13.64744,-0.25904 -25.28822,5.8507c-5.27181,2.34303 -5.27181,2.34303 -7.86081,3.49166c-3.90099,1.73673 -7.79325,3.49272 -11.68654,5.24664c-2.79559,1.25742 -5.59463,2.50656 -8.39737,3.74793c-1.87302,0.83138 -3.74423,1.66683 -5.61503,2.5032c-1.20586,0.53837 -2.41172,1.07674 -3.65412,1.63142c-1.14508,0.51194 -2.29015,1.02389 -3.46992,1.55134c-2.66222,1.15778 -2.66222,1.15778 -3.24798,1.15778c0,10.24489 0,20.48978 0,31.04512c-12.17789,0 -24.35577,0 -36.90268,0c-0.0393,-15.61406 -0.06783,-31.22815 -0.09152,-46.84225c-0.02548,-13.04264 -0.02548,-13.04264 -0.05148,-26.34876c0.17273,-25.5047 0.17273,-25.5047 7.46497,-35.75977c0.39279,-0.58423 0.78414,-1.16944 1.17151,-1.75727c-2.15143,-3.67257 -4.33732,-7.319 -6.58633,-10.9326c-1.60962,-2.59975 -3.19138,-5.2163 -4.77644,-7.83107c-1.44343,-2.38111 -2.89106,-4.75964 -4.3394,-7.13777c-0.6648,-1.0919 -1.32911,-2.18409 -1.99295,-3.27658c-4.47791,-7.40097 -4.47791,-7.40097 -9.0861,-14.72057c-1.24174,-2.13318 -1.22946,-3.52834 -1.04223,-5.89075c0.05158,-1.35446 0.10018,-2.70903 0.14644,-4.06369c0.04804,-1.18375 0.0966,-2.36748 0.14644,-3.55115z" fill="#b39d83"/><path d="M249.91779,0c1.8154,1.8154 3.45089,9.94694 4.08199,12.04463c1.98502,8.73477 1.98502,8.73477 6.40672,16.25475c0.39151,0.40548 0.78302,0.81095 1.18639,1.22872c1.44802,1.46306 2.89965,2.92193 4.36915,4.36343c0.66525,0.67817 1.30723,1.37955 1.93117,2.09591c1.13395,1.29036 2.32783,2.49187 3.55115,3.69759c1.58394,1.56115 3.07663,3.15862 4.53962,4.83249c0.77484,0.78713 1.55599,1.56809 2.34303,2.34303c1.15966,1.14182 2.28781,2.27985 3.35895,3.50539c1.12336,1.28242 2.30959,2.4735 3.52369,3.67013c1.584,1.56121 3.07567,3.15942 4.53962,4.83249c0.82361,0.83599 1.65365,1.66568 2.48947,2.48947c1.58378,1.56099 3.07642,3.15905 4.53962,4.83249c0.86218,0.83093 1.73593,1.64614 2.6176,2.45629c0.19934,0.25257 0.39868,0.50515 0.60406,0.76537c-0.39165,1.95828 -1.133,2.21194 -2.74574,3.3498c-0.50628,0.36168 -1.01256,0.72336 -1.53418,1.09601c-0.52063,0.36923 -1.04125,0.73846 -1.57765,1.11889c-0.935,0.68752 -1.86859,1.37695 -2.80065,2.06845c-2.23198,1.64462 -4.46539,3.28636 -6.7362,4.87711c-1.32633,0.94759 -1.32633,0.94759 -2.54438,2.0982c-1.26304,1.09715 -1.26304,1.09715 -4.02708,2.67137c-8.32267,-1.66453 -16.61538,-3.44976 -24.91297,-5.2352c-3.11432,-0.66975 -6.22863,-1.33951 -9.43732,-2.02956c-2.77528,-0.59878 -5.55057,-1.19755 -8.40996,-1.81447c-1.8843,-0.39944 -3.76859,-0.79887 -5.70998,-1.21041c-3.59535,-0.82443 -4.82183,-1.33031 -7.26819,-3.78683c-0.36735,-0.36583 -0.73469,-0.73167 -1.11317,-1.10859c-0.84546,-0.92325 -0.84546,-0.92325 -0.84546,-1.50901c-0.28995,-0.09665 -0.5799,-0.1933 -0.87864,-0.29288c-0.69118,-0.77412 -1.37297,-1.55663 -2.05015,-2.34303c-0.87238,-0.88484 -1.75131,-1.76327 -2.63591,-2.63591c-1.63265,-1.61059 -3.1775,-3.25292 -4.68606,-4.97893c-0.82361,-0.83599 -1.65365,-1.66568 -2.48947,-2.48947c-1.58357,-1.56078 -3.08261,-3.15358 -4.53962,-4.83249c-0.5249,-0.54275 -1.05496,-1.08062 -1.59253,-1.61083c-0.25333,-0.25069 -0.50666,-0.50137 -0.76766,-0.75965c-0.28146,-0.27636 -0.28146,-0.27636 -0.5686,-0.5583c0.88774,-1.77548 2.29302,-2.94393 3.69759,-4.33826c0.56555,-0.56367 1.13111,-1.12733 1.7138,-1.70808c1.28389,-1.24484 2.61489,-2.44105 3.96072,-3.61865c3.47249,-3.45895 6.93702,-6.92591 10.39718,-10.39718c10.13685,-10.16939 10.13685,-10.16939 12.74021,-12.44733c2.82565,-2.81225 5.64352,-5.63231 8.45687,-8.45687c8.17231,-8.20476 8.17231,-8.20476 8.82296,-8.53008z" fill="#b49d83"/></g></svg>